<svg width="438" height="162" viewBox="0 0 438 162" fill="none" xmlns="http://www.w3.org/2000/svg">
    <path d="M161 81C161 66.9354 157.292 53.1194 150.25 40.9448C143.208 28.7701 133.081 18.6671 120.889 11.6543C108.698 4.64142 94.8732 0.96659 80.8087 1.00023C66.7442 1.03387 52.9371 4.77479 40.7793 11.8459L55.8621 37.7787C63.4607 33.3592 72.0901 31.0212 80.8804 31.0001C89.6708 30.9791 98.3113 33.2759 105.931 37.6589C113.551 42.042 119.88 48.3563 124.281 55.9655C128.683 63.5746 131 72.2096 131 81H161Z" fill="#387BBE" stroke="white"/>
    <path d="M40.7793 11.8459C28.4251 19.0313 18.2214 29.3949 11.229 41.8592C4.23659 54.3236 0.710919 68.4336 1.01854 82.722C1.32616 97.0104 5.45583 110.956 12.9782 123.107C20.5005 135.259 31.1409 145.174 43.7928 151.821L57.7455 125.263C49.838 121.109 43.1878 114.912 38.4864 107.317C33.7849 99.7223 31.2039 91.0065 31.0116 82.0763C30.8193 73.146 33.0229 64.3273 37.3931 56.5371C41.7633 48.7468 48.1407 42.2696 55.862 37.7787L40.7793 11.8459Z" fill="#0D4379" stroke="white"/>
    <path d="M43.793 151.821C55.9854 158.227 69.6251 161.376 83.3916 160.964C97.1581 160.553 110.585 156.594 122.373 149.471C134.161 142.348 143.91 132.303 150.677 120.308C157.444 108.312 161 94.7727 161 81H131C131 89.6079 128.778 98.07 124.548 105.567C120.319 113.064 114.226 119.343 106.858 123.794C99.4908 128.246 91.0989 130.72 82.4948 130.978C73.8907 131.235 65.3659 129.267 57.7457 125.263L43.793 151.821Z" fill="#66A5E4" stroke="white"/>
    <path d="M78.696 73.4545H80.8835V83.767C80.8835 84.6998 80.6988 85.4976 80.3295 86.1605C79.9649 86.8234 79.4512 87.33 78.7883 87.6804C78.1254 88.026 77.3489 88.1989 76.4587 88.1989C75.6396 88.1989 74.9033 88.0497 74.2499 87.7514C73.6013 87.4531 73.0875 87.0199 72.7087 86.4517C72.3347 85.8788 72.1477 85.1828 72.1477 84.3636H74.3281C74.3281 84.7661 74.4204 85.1141 74.605 85.4077C74.7944 85.7012 75.0525 85.9309 75.3792 86.0966C75.7106 86.2576 76.0894 86.3381 76.5156 86.3381C76.9796 86.3381 77.3726 86.241 77.6945 86.0469C78.0212 85.848 78.2698 85.5568 78.4403 85.1733C78.6107 84.7898 78.696 84.321 78.696 83.767V73.4545ZM84.3072 88V77.0909H86.3598V78.8239H86.4734C86.6723 78.2367 87.0227 77.7751 87.5246 77.4389C88.0312 77.098 88.6041 76.9276 89.2433 76.9276C89.3759 76.9276 89.5322 76.9323 89.7121 76.9418C89.8967 76.9512 90.0412 76.9631 90.1453 76.9773V79.0085C90.0601 78.9848 89.9086 78.9588 89.6908 78.9304C89.473 78.8973 89.2552 78.8807 89.0374 78.8807C88.5355 78.8807 88.088 78.9872 87.695 79.2003C87.3068 79.4086 86.999 79.6998 86.7717 80.0739C86.5445 80.4432 86.4308 80.8646 86.4308 81.3381V88H84.3072Z" fill="#387BBE"/>
    <path d="M299 81C299 66.9354 295.292 53.1194 288.25 40.9448C281.208 28.7701 271.081 18.6671 258.889 11.6543C246.698 4.64142 232.873 0.96659 218.809 1.00023C204.744 1.03387 190.937 4.77479 178.779 11.8459L193.862 37.7787C201.461 33.3592 210.09 31.0212 218.88 31.0001C227.671 30.9791 236.311 33.2759 243.931 37.6589C251.551 42.042 257.88 48.3563 262.281 55.9655C266.683 63.5746 269 72.2096 269 81H299Z" fill="#387BBE" stroke="white"/>
    <path d="M178.779 11.8459C166.425 19.0313 156.221 29.3949 149.229 41.8592C142.237 54.3236 138.711 68.4336 139.019 82.722C139.326 97.0104 143.456 110.956 150.978 123.107C158.501 135.259 169.141 145.174 181.793 151.821L195.746 125.263C187.838 121.109 181.188 114.912 176.486 107.317C171.785 99.7223 169.204 91.0065 169.012 82.0763C168.819 73.146 171.023 64.3273 175.393 56.5371C179.763 48.7468 186.141 42.2696 193.862 37.7787L178.779 11.8459Z" fill="#0D4379" stroke="white"/>
    <path d="M181.793 151.821C193.985 158.227 207.625 161.376 221.392 160.964C235.158 160.553 248.585 156.594 260.373 149.471C272.161 142.348 281.91 132.303 288.677 120.308C295.444 108.312 299 94.7727 299 81H269C269 89.6079 266.778 98.07 262.548 105.567C258.319 113.064 252.226 119.343 244.858 123.794C237.491 128.246 229.099 130.72 220.495 130.978C211.891 131.235 203.366 129.267 195.746 125.263L181.793 151.821Z" fill="#66A5E4" stroke="white"/>
    <path d="M202.473 73.4545H205.137L209.767 84.7614H209.938L214.569 73.4545H217.232V88H215.144V77.4744H215.009L210.719 87.9787H208.986L204.696 77.4673H204.561V88H202.473V73.4545ZM220.652 88V77.0909H222.776V88H220.652ZM221.725 75.4077C221.355 75.4077 221.038 75.2846 220.773 75.0384C220.512 74.7874 220.382 74.4891 220.382 74.1435C220.382 73.7931 220.512 73.4948 220.773 73.2486C221.038 72.9976 221.355 72.8722 221.725 72.8722C222.094 72.8722 222.409 72.9976 222.669 73.2486C222.934 73.4948 223.067 73.7931 223.067 74.1435C223.067 74.4891 222.934 74.7874 222.669 75.0384C222.409 75.2846 222.094 75.4077 221.725 75.4077ZM230.116 88.2131C229.236 88.2131 228.45 87.9882 227.758 87.5384C227.072 87.0838 226.532 86.4375 226.139 85.5994C225.751 84.7566 225.557 83.7457 225.557 82.5668C225.557 81.3878 225.753 80.3793 226.146 79.5412C226.544 78.7031 227.089 78.0616 227.78 77.6165C228.471 77.1714 229.255 76.9489 230.131 76.9489C230.808 76.9489 231.352 77.0625 231.764 77.2898C232.181 77.5123 232.503 77.7727 232.73 78.071C232.962 78.3693 233.142 78.6321 233.27 78.8594H233.398V73.4545H235.521V88H233.447V86.3026H233.27C233.142 86.5346 232.957 86.7997 232.716 87.098C232.479 87.3963 232.152 87.6567 231.736 87.8793C231.319 88.1018 230.779 88.2131 230.116 88.2131ZM230.585 86.402C231.196 86.402 231.712 86.241 232.133 85.919C232.56 85.5923 232.882 85.1402 233.099 84.5625C233.322 83.9848 233.433 83.3125 233.433 82.5455C233.433 81.7879 233.324 81.125 233.106 80.5568C232.889 79.9886 232.569 79.5459 232.148 79.2287C231.726 78.9115 231.205 78.7528 230.585 78.7528C229.946 78.7528 229.413 78.9186 228.987 79.25C228.561 79.5814 228.239 80.0336 228.021 80.6065C227.808 81.1795 227.702 81.8258 227.702 82.5455C227.702 83.2746 227.811 83.9304 228.028 84.5128C228.246 85.0952 228.568 85.5568 228.994 85.8977C229.425 86.2339 229.955 86.402 230.585 86.402Z" fill="#387BBE"/>
    <path d="M437 81C437 66.9354 433.292 53.1194 426.25 40.9448C419.208 28.7701 409.081 18.6671 396.889 11.6543C384.698 4.64142 370.873 0.96659 356.809 1.00023C342.744 1.03387 328.937 4.77479 316.779 11.8459L331.862 37.7787C339.461 33.3592 348.09 31.0212 356.88 31.0001C365.671 30.9791 374.311 33.2759 381.931 37.6589C389.551 42.042 395.88 48.3563 400.281 55.9655C404.683 63.5746 407 72.2096 407 81H437Z" fill="#387BBE" stroke="white"/>
    <path d="M316.779 11.8459C304.425 19.0313 294.221 29.3949 287.229 41.8592C280.237 54.3236 276.711 68.4336 277.019 82.722C277.326 97.0104 281.456 110.956 288.978 123.107C296.501 135.259 307.141 145.174 319.793 151.821L333.746 125.263C325.838 121.109 319.188 114.912 314.486 107.317C309.785 99.7223 307.204 91.0065 307.012 82.0763C306.819 73.146 309.023 64.3273 313.393 56.5371C317.763 48.7468 324.141 42.2696 331.862 37.7787L316.779 11.8459Z" fill="#0D4379" stroke="white"/>
    <path d="M319.793 151.821C331.985 158.227 345.625 161.376 359.392 160.964C373.158 160.553 386.585 156.594 398.373 149.471C410.161 142.348 419.91 132.303 426.677 120.308C433.444 108.312 437 94.7727 437 81H407C407 89.6079 404.778 98.07 400.548 105.567C396.319 113.064 390.226 119.343 382.858 123.794C375.491 128.246 367.099 130.72 358.495 130.978C349.891 131.235 341.366 129.267 333.746 125.263L319.793 151.821Z" fill="#66A5E4" stroke="white"/>
    <path d="M356.058 77.2756C355.982 76.6032 355.67 76.0824 355.12 75.7131C354.571 75.339 353.88 75.152 353.046 75.152C352.45 75.152 351.934 75.2467 351.498 75.4361C351.063 75.6207 350.724 75.8764 350.483 76.2031C350.246 76.5251 350.127 76.892 350.127 77.304C350.127 77.6496 350.208 77.9479 350.369 78.1989C350.535 78.4498 350.75 78.6605 351.015 78.831C351.285 78.9967 351.574 79.1364 351.882 79.25C352.189 79.3589 352.485 79.4489 352.769 79.5199L354.19 79.8892C354.654 80.0028 355.13 80.1567 355.617 80.3509C356.105 80.545 356.557 80.8007 356.974 81.1179C357.391 81.4351 357.727 81.8281 357.983 82.2969C358.243 82.7656 358.373 83.3267 358.373 83.9801C358.373 84.804 358.16 85.5355 357.734 86.1747C357.313 86.8139 356.699 87.3182 355.894 87.6875C355.094 88.0568 354.126 88.2415 352.99 88.2415C351.901 88.2415 350.958 88.0687 350.163 87.723C349.367 87.3774 348.745 86.8873 348.295 86.2528C347.845 85.6136 347.597 84.8561 347.549 83.9801H349.751C349.794 84.5057 349.964 84.9437 350.262 85.294C350.565 85.6397 350.951 85.8977 351.42 86.0682C351.894 86.2339 352.412 86.3168 352.975 86.3168C353.596 86.3168 354.147 86.2197 354.63 86.0256C355.118 85.8267 355.501 85.5521 355.781 85.2017C356.06 84.8466 356.2 84.4323 356.2 83.9588C356.2 83.5279 356.077 83.1752 355.831 82.9006C355.589 82.6259 355.26 82.3987 354.843 82.2188C354.431 82.0388 353.965 81.8802 353.444 81.7429L351.725 81.2741C350.561 80.9569 349.637 80.4905 348.956 79.875C348.278 79.2595 347.94 78.4451 347.94 77.4318C347.94 76.5937 348.167 75.8622 348.622 75.2372C349.076 74.6122 349.692 74.1269 350.468 73.7812C351.245 73.4309 352.121 73.2557 353.096 73.2557C354.081 73.2557 354.95 73.4285 355.703 73.7741C356.46 74.1198 357.057 74.5956 357.492 75.2017C357.928 75.803 358.155 76.4943 358.174 77.2756H356.058ZM361.225 88V77.0909H363.278V78.8239H363.391C363.59 78.2367 363.941 77.7751 364.443 77.4389C364.949 77.098 365.522 76.9276 366.161 76.9276C366.294 76.9276 366.45 76.9323 366.63 76.9418C366.815 76.9512 366.959 76.9631 367.063 76.9773V79.0085C366.978 78.9848 366.827 78.9588 366.609 78.9304C366.391 78.8973 366.173 78.8807 365.955 78.8807C365.453 78.8807 365.006 78.9872 364.613 79.2003C364.225 79.4086 363.917 79.6998 363.69 80.0739C363.462 80.4432 363.349 80.8646 363.349 81.3381V88H361.225Z" fill="#387BBE"/>
    </svg>
    