<svg width="268" height="326" viewBox="0 0 268 326" fill="none"
                            xmlns="http://www.w3.org/2000/svg">
                            <rect x="0.5" y="84.5" width="113" height="63" rx="7.5" fill="white" />
                            <path
                                d="M29.0862 104.273H30.3476L33.3135 111.517H33.4157L36.3816 104.273H37.643V113H36.6544V106.369H36.5691L33.8419 113H32.8873L30.1601 106.369H30.0748V113H29.0862V104.273ZM39.8656 113V106.455H40.8713V113H39.8656ZM40.377 105.364C40.181 105.364 40.0119 105.297 39.8699 105.163C39.7307 105.03 39.6611 104.869 39.6611 104.682C39.6611 104.494 39.7307 104.334 39.8699 104.2C40.0119 104.067 40.181 104 40.377 104C40.573 104 40.7406 104.067 40.8798 104.2C41.0219 104.334 41.0929 104.494 41.0929 104.682C41.0929 104.869 41.0219 105.03 40.8798 105.163C40.7406 105.297 40.573 105.364 40.377 105.364ZM45.4249 113.136C44.8794 113.136 44.3979 112.999 43.9803 112.723C43.5626 112.445 43.2359 112.053 43.0001 111.547C42.7643 111.038 42.6464 110.438 42.6464 109.744C42.6464 109.057 42.7643 108.46 43.0001 107.955C43.2359 107.449 43.5641 107.058 43.9845 106.783C44.405 106.507 44.8908 106.369 45.4419 106.369C45.868 106.369 46.2047 106.44 46.4518 106.582C46.7018 106.722 46.8922 106.881 47.0229 107.06C47.1564 107.236 47.2601 107.381 47.3339 107.494H47.4192V104.273H48.4249V113H47.4533V111.994H47.3339C47.2601 112.114 47.155 112.264 47.0186 112.446C46.8822 112.625 46.6876 112.786 46.4348 112.928C46.182 113.067 45.8453 113.136 45.4249 113.136ZM45.5612 112.233C45.9646 112.233 46.3055 112.128 46.5839 111.918C46.8624 111.705 47.074 111.411 47.2189 111.036C47.3638 110.658 47.4362 110.222 47.4362 109.727C47.4362 109.239 47.3652 108.811 47.2232 108.445C47.0811 108.075 46.8709 107.788 46.5925 107.584C46.3141 107.376 45.9703 107.273 45.5612 107.273C45.1351 107.273 44.78 107.382 44.4959 107.601C44.2146 107.817 44.003 108.111 43.8609 108.483C43.7217 108.852 43.6521 109.267 43.6521 109.727C43.6521 110.193 43.7232 110.616 43.8652 110.997C44.0101 111.375 44.2232 111.676 44.5044 111.901C44.7885 112.122 45.1408 112.233 45.5612 112.233ZM54.3964 108.79V109.727H50.5782V108.79H54.3964ZM57.4116 104.273V113H56.4059V104.273H57.4116ZM62.2379 113.136C61.6072 113.136 61.0632 112.997 60.6058 112.719C60.1513 112.438 59.8004 112.045 59.5532 111.543C59.3089 111.037 59.1868 110.449 59.1868 109.778C59.1868 109.108 59.3089 108.517 59.5532 108.006C59.8004 107.491 60.1442 107.091 60.5845 106.804C61.0277 106.514 61.5447 106.369 62.1356 106.369C62.4765 106.369 62.8132 106.426 63.1456 106.54C63.478 106.653 63.7805 106.838 64.0532 107.094C64.326 107.347 64.5433 107.682 64.7052 108.099C64.8672 108.517 64.9481 109.031 64.9481 109.642V110.068H59.9027V109.199H63.9254C63.9254 108.83 63.8515 108.5 63.7038 108.21C63.5589 107.92 63.3515 107.692 63.0817 107.524C62.8146 107.357 62.4993 107.273 62.1356 107.273C61.7351 107.273 61.3885 107.372 61.0959 107.571C60.8061 107.767 60.5831 108.023 60.4268 108.338C60.2706 108.653 60.1924 108.991 60.1924 109.352V109.932C60.1924 110.426 60.2777 110.845 60.4481 111.189C60.6214 111.53 60.8615 111.79 61.1683 111.969C61.4751 112.145 61.8317 112.233 62.2379 112.233C62.5021 112.233 62.7407 112.196 62.9538 112.122C63.1697 112.045 63.3558 111.932 63.512 111.781C63.6683 111.628 63.789 111.437 63.8743 111.21L64.8459 111.483C64.7436 111.812 64.5717 112.102 64.3302 112.352C64.0888 112.599 63.7905 112.793 63.4353 112.932C63.0802 113.068 62.6811 113.136 62.2379 113.136ZM71.871 106.455L69.4506 113H68.4278L66.0074 106.455H67.0983L68.9051 111.67H68.9733L70.7801 106.455H71.871ZM75.9484 113.136C75.3177 113.136 74.7736 112.997 74.3163 112.719C73.8617 112.438 73.5109 112.045 73.2637 111.543C73.0194 111.037 72.8972 110.449 72.8972 109.778C72.8972 109.108 73.0194 108.517 73.2637 108.006C73.5109 107.491 73.8546 107.091 74.295 106.804C74.7381 106.514 75.2552 106.369 75.8461 106.369C76.187 106.369 76.5236 106.426 76.856 106.54C77.1884 106.653 77.491 106.838 77.7637 107.094C78.0364 107.347 78.2538 107.682 78.4157 108.099C78.5776 108.517 78.6586 109.031 78.6586 109.642V110.068H73.6131V109.199H77.6359C77.6359 108.83 77.562 108.5 77.4143 108.21C77.2694 107.92 77.062 107.692 76.7921 107.524C76.5251 107.357 76.2097 107.273 75.8461 107.273C75.4455 107.273 75.0989 107.372 74.8063 107.571C74.5165 107.767 74.2935 108.023 74.1373 108.338C73.981 108.653 73.9029 108.991 73.9029 109.352V109.932C73.9029 110.426 73.9881 110.845 74.1586 111.189C74.3319 111.53 74.5719 111.79 74.8788 111.969C75.1856 112.145 75.5421 112.233 75.9484 112.233C76.2126 112.233 76.4512 112.196 76.6643 112.122C76.8802 112.045 77.0663 111.932 77.2225 111.781C77.3788 111.628 77.4995 111.437 77.5847 111.21L78.5563 111.483C78.454 111.812 78.2822 112.102 78.0407 112.352C77.7992 112.599 77.5009 112.793 77.1458 112.932C76.7907 113.068 76.3915 113.136 75.9484 113.136ZM81.4341 104.273V113H80.4284V104.273H81.4341ZM27.3458 119.273H28.4026V125.051C28.4026 125.648 28.262 126.18 27.9808 126.649C27.7023 127.115 27.3089 127.483 26.8004 127.753C26.2918 128.02 25.6952 128.153 25.0106 128.153C24.3259 128.153 23.7293 128.02 23.2208 127.753C22.7123 127.483 22.3174 127.115 22.0361 126.649C21.7577 126.18 21.6185 125.648 21.6185 125.051V119.273H22.6754V124.966C22.6754 125.392 22.7691 125.771 22.9566 126.104C23.1441 126.433 23.4111 126.693 23.7577 126.884C24.1072 127.071 24.5248 127.165 25.0106 127.165C25.4964 127.165 25.914 127.071 26.2634 126.884C26.6129 126.693 26.8799 126.433 27.0646 126.104C27.2521 125.771 27.3458 125.392 27.3458 124.966V119.273ZM31.2644 119.273L33.5144 122.903H33.5826L35.8326 119.273H37.0769L34.3326 123.636L37.0769 128H35.8326L33.5826 124.438H33.5144L31.2644 128H30.0201L32.8326 123.636L30.0201 119.273H31.2644ZM45.0005 128H42.3073V119.273H45.1198C45.9664 119.273 46.6908 119.447 47.2931 119.797C47.8954 120.143 48.357 120.642 48.678 121.293C48.999 121.94 49.1596 122.716 49.1596 123.619C49.1596 124.528 48.9976 125.311 48.6738 125.967C48.3499 126.621 47.8783 127.124 47.259 127.476C46.6397 127.825 45.8868 128 45.0005 128ZM43.3641 127.062H44.9323C45.6539 127.062 46.2519 126.923 46.7263 126.645C47.2008 126.366 47.5544 125.97 47.7874 125.456C48.0204 124.942 48.1368 124.33 48.1368 123.619C48.1368 122.915 48.0218 122.308 47.7917 121.8C47.5615 121.288 47.2178 120.896 46.7604 120.624C46.303 120.348 45.7334 120.21 45.0516 120.21H43.3641V127.062ZM53.7802 128.136C53.1496 128.136 52.6055 127.997 52.1481 127.719C51.6936 127.438 51.3427 127.045 51.0956 126.543C50.8513 126.037 50.7291 125.449 50.7291 124.778C50.7291 124.108 50.8513 123.517 51.0956 123.006C51.3427 122.491 51.6865 122.091 52.1268 121.804C52.57 121.514 53.0871 121.369 53.678 121.369C54.0189 121.369 54.3555 121.426 54.6879 121.54C55.0203 121.653 55.3229 121.838 55.5956 122.094C55.8683 122.347 56.0856 122.682 56.2476 123.099C56.4095 123.517 56.4905 124.031 56.4905 124.642V125.068H51.445V124.199H55.4677C55.4677 123.83 55.3939 123.5 55.2461 123.21C55.1013 122.92 54.8939 122.692 54.624 122.524C54.3569 122.357 54.0416 122.273 53.678 122.273C53.2774 122.273 52.9308 122.372 52.6382 122.571C52.3484 122.767 52.1254 123.023 51.9692 123.338C51.8129 123.653 51.7348 123.991 51.7348 124.352V124.932C51.7348 125.426 51.82 125.845 51.9905 126.189C52.1638 126.53 52.4038 126.79 52.7106 126.969C53.0175 127.145 53.374 127.233 53.7802 127.233C54.0444 127.233 54.2831 127.196 54.4961 127.122C54.7121 127.045 54.8981 126.932 55.0544 126.781C55.2106 126.628 55.3314 126.437 55.4166 126.21L56.3882 126.483C56.2859 126.812 56.114 127.102 55.8726 127.352C55.6311 127.599 55.3328 127.793 54.9777 127.932C54.6226 128.068 54.2234 128.136 53.7802 128.136ZM62.8967 122.92L61.9933 123.176C61.9364 123.026 61.8526 122.879 61.7418 122.737C61.6339 122.592 61.4862 122.473 61.2987 122.379C61.1112 122.286 60.8711 122.239 60.5785 122.239C60.1779 122.239 59.8441 122.331 59.5771 122.516C59.3129 122.697 59.1808 122.929 59.1808 123.21C59.1808 123.46 59.2717 123.658 59.4535 123.803C59.6353 123.947 59.9194 124.068 60.3058 124.165L61.2773 124.403C61.8626 124.545 62.2987 124.763 62.5856 125.055C62.8725 125.345 63.016 125.719 63.016 126.176C63.016 126.551 62.908 126.886 62.6921 127.182C62.479 127.477 62.1808 127.71 61.7972 127.881C61.4137 128.051 60.9677 128.136 60.4592 128.136C59.7915 128.136 59.239 127.991 58.8015 127.702C58.364 127.412 58.087 126.989 57.9705 126.432L58.9251 126.193C59.016 126.545 59.1879 126.81 59.4407 126.986C59.6964 127.162 60.0302 127.25 60.4421 127.25C60.9109 127.25 61.283 127.151 61.5586 126.952C61.837 126.75 61.9762 126.509 61.9762 126.227C61.9762 126 61.8967 125.81 61.7376 125.656C61.5785 125.5 61.3342 125.384 61.0046 125.307L59.9137 125.051C59.3143 124.909 58.8739 124.689 58.5927 124.391C58.3143 124.089 58.1751 123.713 58.1751 123.261C58.1751 122.892 58.2788 122.565 58.4862 122.281C58.6964 121.997 58.9819 121.774 59.3427 121.612C59.7063 121.45 60.1183 121.369 60.5785 121.369C61.2262 121.369 61.7347 121.511 62.104 121.795C62.4762 122.08 62.7404 122.455 62.8967 122.92ZM64.7698 128V121.455H65.7755V128H64.7698ZM65.2812 120.364C65.0852 120.364 64.9161 120.297 64.7741 120.163C64.6349 120.03 64.5653 119.869 64.5653 119.682C64.5653 119.494 64.6349 119.334 64.7741 119.2C64.9161 119.067 65.0852 119 65.2812 119C65.4772 119 65.6448 119.067 65.784 119.2C65.9261 119.334 65.9971 119.494 65.9971 119.682C65.9971 119.869 65.9261 120.03 65.784 120.163C65.6448 120.297 65.4772 120.364 65.2812 120.364ZM70.4995 130.591C70.0137 130.591 69.5961 130.528 69.2467 130.403C68.8973 130.281 68.6061 130.119 68.3731 129.918C68.143 129.719 67.9598 129.506 67.8234 129.278L68.6245 128.716C68.7154 128.835 68.8305 128.972 68.9697 129.125C69.1089 129.281 69.2992 129.416 69.5407 129.53C69.785 129.646 70.1046 129.705 70.4995 129.705C71.0279 129.705 71.464 129.577 71.8078 129.321C72.1515 129.065 72.3234 128.665 72.3234 128.119V126.79H72.2382C72.1643 126.909 72.0592 127.057 71.9228 127.233C71.7893 127.406 71.5961 127.561 71.3433 127.697C71.0933 127.831 70.7552 127.898 70.3291 127.898C69.8007 127.898 69.3262 127.773 68.9058 127.523C68.4882 127.273 68.1572 126.909 67.9129 126.432C67.6714 125.955 67.5507 125.375 67.5507 124.693C67.5507 124.023 67.6686 123.439 67.9044 122.942C68.1402 122.442 68.4683 122.055 68.8887 121.783C69.3092 121.507 69.795 121.369 70.3461 121.369C70.7723 121.369 71.1103 121.44 71.3603 121.582C71.6132 121.722 71.8063 121.881 71.9399 122.06C72.0762 122.236 72.1813 122.381 72.2552 122.494H72.3575V121.455H73.3291V128.188C73.3291 128.75 73.2012 129.207 72.9456 129.56C72.6927 129.915 72.3518 130.175 71.9228 130.339C71.4967 130.507 71.0223 130.591 70.4995 130.591ZM70.4654 126.994C70.8688 126.994 71.2098 126.902 71.4882 126.717C71.7666 126.533 71.9782 126.267 72.1231 125.92C72.268 125.574 72.3404 125.159 72.3404 124.676C72.3404 124.205 72.2694 123.788 72.1274 123.428C71.9853 123.067 71.7751 122.784 71.4967 122.58C71.2183 122.375 70.8745 122.273 70.4654 122.273C70.0393 122.273 69.6842 122.381 69.4001 122.597C69.1188 122.812 68.9072 123.102 68.7652 123.466C68.626 123.83 68.5563 124.233 68.5563 124.676C68.5563 125.131 68.6274 125.533 68.7694 125.882C68.9143 126.229 69.1274 126.501 69.4086 126.7C69.6927 126.896 70.045 126.994 70.4654 126.994ZM76.4157 124.062V128H75.41V121.455H76.3816V122.477H76.4668C76.6202 122.145 76.8532 121.878 77.1657 121.676C77.4782 121.472 77.8816 121.369 78.3759 121.369C78.8191 121.369 79.2069 121.46 79.5392 121.642C79.8716 121.821 80.1302 122.094 80.3148 122.46C80.4995 122.824 80.5918 123.284 80.5918 123.841V128H79.5861V123.909C79.5861 123.395 79.4526 122.994 79.1856 122.707C78.9185 122.418 78.552 122.273 78.0861 122.273C77.7651 122.273 77.4782 122.342 77.2253 122.482C76.9753 122.621 76.7779 122.824 76.633 123.091C76.4881 123.358 76.4157 123.682 76.4157 124.062ZM85.4138 128.136C84.7832 128.136 84.2391 127.997 83.7817 127.719C83.3272 127.438 82.9763 127.045 82.7292 126.543C82.4849 126.037 82.3627 125.449 82.3627 124.778C82.3627 124.108 82.4849 123.517 82.7292 123.006C82.9763 122.491 83.3201 122.091 83.7604 121.804C84.2036 121.514 84.7207 121.369 85.3116 121.369C85.6525 121.369 85.9891 121.426 86.3215 121.54C86.6539 121.653 86.9564 121.838 87.2292 122.094C87.5019 122.347 87.7192 122.682 87.8812 123.099C88.0431 123.517 88.1241 124.031 88.1241 124.642V125.068H83.0786V124.199H87.1013C87.1013 123.83 87.0275 123.5 86.8797 123.21C86.7349 122.92 86.5275 122.692 86.2576 122.524C85.9905 122.357 85.6752 122.273 85.3116 122.273C84.911 122.273 84.5644 122.372 84.2718 122.571C83.982 122.767 83.759 123.023 83.6028 123.338C83.4465 123.653 83.3684 123.991 83.3684 124.352V124.932C83.3684 125.426 83.4536 125.845 83.6241 126.189C83.7974 126.53 84.0374 126.79 84.3442 126.969C84.6511 127.145 85.0076 127.233 85.4138 127.233C85.678 127.233 85.9167 127.196 86.1297 127.122C86.3457 127.045 86.5317 126.932 86.688 126.781C86.8442 126.628 86.965 126.437 87.0502 126.21L88.0218 126.483C87.9195 126.812 87.7476 127.102 87.5062 127.352C87.2647 127.599 86.9664 127.793 86.6113 127.932C86.2562 128.068 85.857 128.136 85.4138 128.136ZM89.8939 128V121.455H90.8655V122.443H90.9337C91.053 122.119 91.2689 121.857 91.5814 121.655C91.8939 121.453 92.2462 121.352 92.6382 121.352C92.7121 121.352 92.8044 121.354 92.9152 121.357C93.026 121.359 93.1098 121.364 93.1666 121.369V122.392C93.1325 122.384 93.0544 122.371 92.9322 122.354C92.8129 122.334 92.6865 122.324 92.553 122.324C92.2348 122.324 91.9507 122.391 91.7007 122.524C91.4535 122.655 91.2575 122.837 91.1126 123.07C90.9706 123.3 90.8996 123.562 90.8996 123.858V128H89.8939Z"
                                fill="#303030" />
                            <rect x="0.5" y="84.5" width="113" height="63" rx="7.5" stroke="#C4C4C4" />
                            <rect x="154.5" y="84.5" width="113" height="63" rx="7.5" fill="white" />
                            <path
                                d="M189.071 113V104.273H192.02C192.705 104.273 193.264 104.396 193.699 104.643C194.137 104.888 194.46 105.219 194.671 105.636C194.881 106.054 194.986 106.52 194.986 107.034C194.986 107.548 194.881 108.016 194.671 108.436C194.463 108.857 194.142 109.192 193.708 109.442C193.273 109.689 192.716 109.812 192.037 109.812H189.923V108.875H192.003C192.472 108.875 192.848 108.794 193.132 108.632C193.416 108.47 193.622 108.251 193.75 107.976C193.881 107.697 193.946 107.384 193.946 107.034C193.946 106.685 193.881 106.372 193.75 106.097C193.622 105.821 193.415 105.605 193.128 105.449C192.841 105.29 192.46 105.21 191.986 105.21H190.128V113H189.071ZM196.792 113V106.455H197.764V107.443H197.832C197.951 107.119 198.167 106.857 198.48 106.655C198.792 106.453 199.144 106.352 199.536 106.352C199.61 106.352 199.703 106.354 199.813 106.357C199.924 106.359 200.008 106.364 200.065 106.369V107.392C200.031 107.384 199.953 107.371 199.83 107.354C199.711 107.334 199.585 107.324 199.451 107.324C199.133 107.324 198.849 107.391 198.599 107.524C198.352 107.655 198.156 107.837 198.011 108.07C197.869 108.3 197.798 108.562 197.798 108.858V113H196.792ZM203.957 113.136C203.366 113.136 202.847 112.996 202.401 112.714C201.958 112.433 201.612 112.04 201.362 111.534C201.114 111.028 200.991 110.437 200.991 109.761C200.991 109.08 201.114 108.484 201.362 107.976C201.612 107.467 201.958 107.072 202.401 106.791C202.847 106.51 203.366 106.369 203.957 106.369C204.548 106.369 205.065 106.51 205.508 106.791C205.954 107.072 206.3 107.467 206.548 107.976C206.798 108.484 206.923 109.08 206.923 109.761C206.923 110.437 206.798 111.028 206.548 111.534C206.3 112.04 205.954 112.433 205.508 112.714C205.065 112.996 204.548 113.136 203.957 113.136ZM203.957 112.233C204.406 112.233 204.775 112.118 205.065 111.888C205.354 111.658 205.569 111.355 205.708 110.98C205.847 110.605 205.917 110.199 205.917 109.761C205.917 109.324 205.847 108.916 205.708 108.538C205.569 108.161 205.354 107.855 205.065 107.622C204.775 107.389 204.406 107.273 203.957 107.273C203.508 107.273 203.139 107.389 202.849 107.622C202.559 107.855 202.345 108.161 202.205 108.538C202.066 108.916 201.997 109.324 201.997 109.761C201.997 110.199 202.066 110.605 202.205 110.98C202.345 111.355 202.559 111.658 202.849 111.888C203.139 112.118 203.508 112.233 203.957 112.233ZM211.169 113.136C210.624 113.136 210.142 112.999 209.725 112.723C209.307 112.445 208.98 112.053 208.745 111.547C208.509 111.038 208.391 110.438 208.391 109.744C208.391 109.057 208.509 108.46 208.745 107.955C208.98 107.449 209.309 107.058 209.729 106.783C210.15 106.507 210.635 106.369 211.186 106.369C211.613 106.369 211.949 106.44 212.196 106.582C212.446 106.722 212.637 106.881 212.767 107.06C212.901 107.236 213.005 107.381 213.078 107.494H213.164V104.273H214.169V113H213.198V111.994H213.078C213.005 112.114 212.9 112.264 212.763 112.446C212.627 112.625 212.432 112.786 212.179 112.928C211.926 113.067 211.59 113.136 211.169 113.136ZM211.306 112.233C211.709 112.233 212.05 112.128 212.328 111.918C212.607 111.705 212.819 111.411 212.963 111.036C213.108 110.658 213.181 110.222 213.181 109.727C213.181 109.239 213.11 108.811 212.968 108.445C212.826 108.075 212.615 107.788 212.337 107.584C212.059 107.376 211.715 107.273 211.306 107.273C210.88 107.273 210.525 107.382 210.24 107.601C209.959 107.817 209.748 108.111 209.605 108.483C209.466 108.852 209.397 109.267 209.397 109.727C209.397 110.193 209.468 110.616 209.61 110.997C209.755 111.375 209.968 111.676 210.249 111.901C210.533 112.122 210.885 112.233 211.306 112.233ZM220.516 110.324V106.455H221.522V113H220.516V111.892H220.448C220.294 112.224 220.056 112.507 219.732 112.74C219.408 112.97 218.999 113.085 218.505 113.085C218.095 113.085 217.732 112.996 217.414 112.817C217.095 112.635 216.845 112.362 216.664 111.999C216.482 111.632 216.391 111.17 216.391 110.614V106.455H217.397V110.545C217.397 111.023 217.53 111.403 217.797 111.688C218.067 111.972 218.411 112.114 218.828 112.114C219.078 112.114 219.333 112.05 219.591 111.922C219.853 111.794 220.071 111.598 220.247 111.334C220.426 111.07 220.516 110.733 220.516 110.324ZM226.263 113.136C225.649 113.136 225.121 112.991 224.677 112.702C224.234 112.412 223.893 112.013 223.655 111.504C223.416 110.996 223.297 110.415 223.297 109.761C223.297 109.097 223.419 108.51 223.663 108.001C223.91 107.49 224.254 107.091 224.694 106.804C225.138 106.514 225.655 106.369 226.246 106.369C226.706 106.369 227.121 106.455 227.49 106.625C227.859 106.795 228.162 107.034 228.398 107.341C228.633 107.648 228.78 108.006 228.837 108.415H227.831C227.754 108.116 227.584 107.852 227.319 107.622C227.058 107.389 226.706 107.273 226.263 107.273C225.871 107.273 225.527 107.375 225.231 107.58C224.939 107.781 224.71 108.067 224.545 108.436C224.383 108.803 224.302 109.233 224.302 109.727C224.302 110.233 224.382 110.673 224.541 111.048C224.703 111.423 224.93 111.714 225.223 111.922C225.518 112.129 225.865 112.233 226.263 112.233C226.524 112.233 226.761 112.188 226.974 112.097C227.187 112.006 227.368 111.875 227.516 111.705C227.663 111.534 227.768 111.33 227.831 111.091H228.837C228.78 111.477 228.639 111.825 228.415 112.135C228.193 112.442 227.899 112.686 227.533 112.868C227.169 113.047 226.746 113.136 226.263 113.136ZM233.393 106.455V107.307H230.001V106.455H233.393ZM230.99 104.886H231.996V111.125C231.996 111.409 232.037 111.622 232.119 111.764C232.204 111.903 232.312 111.997 232.443 112.045C232.577 112.091 232.717 112.114 232.865 112.114C232.976 112.114 233.067 112.108 233.138 112.097C233.209 112.082 233.265 112.071 233.308 112.062L233.513 112.966C233.444 112.991 233.349 113.017 233.227 113.043C233.105 113.071 232.95 113.085 232.763 113.085C232.479 113.085 232.2 113.024 231.927 112.902C231.658 112.78 231.433 112.594 231.254 112.344C231.078 112.094 230.99 111.778 230.99 111.398V104.886ZM188.656 128H185.963V119.273H188.775C189.622 119.273 190.346 119.447 190.949 119.797C191.551 120.143 192.013 120.642 192.334 121.293C192.655 121.94 192.815 122.716 192.815 123.619C192.815 124.528 192.653 125.311 192.329 125.967C192.006 126.621 191.534 127.124 190.915 127.476C190.295 127.825 189.542 128 188.656 128ZM187.02 127.062H188.588C189.31 127.062 189.908 126.923 190.382 126.645C190.856 126.366 191.21 125.97 191.443 125.456C191.676 124.942 191.792 124.33 191.792 123.619C191.792 122.915 191.677 122.308 191.447 121.8C191.217 121.288 190.873 120.896 190.416 120.624C189.959 120.348 189.389 120.21 188.707 120.21H187.02V127.062ZM197.436 128.136C196.805 128.136 196.261 127.997 195.804 127.719C195.349 127.438 194.998 127.045 194.751 126.543C194.507 126.037 194.385 125.449 194.385 124.778C194.385 124.108 194.507 123.517 194.751 123.006C194.998 122.491 195.342 122.091 195.782 121.804C196.226 121.514 196.743 121.369 197.334 121.369C197.675 121.369 198.011 121.426 198.344 121.54C198.676 121.653 198.978 121.838 199.251 122.094C199.524 122.347 199.741 122.682 199.903 123.099C200.065 123.517 200.146 124.031 200.146 124.642V125.068H195.101V124.199H199.123C199.123 123.83 199.05 123.5 198.902 123.21C198.757 122.92 198.55 122.692 198.28 122.524C198.013 122.357 197.697 122.273 197.334 122.273C196.933 122.273 196.586 122.372 196.294 122.571C196.004 122.767 195.781 123.023 195.625 123.338C195.469 123.653 195.39 123.991 195.39 124.352V124.932C195.39 125.426 195.476 125.845 195.646 126.189C195.819 126.53 196.059 126.79 196.366 126.969C196.673 127.145 197.03 127.233 197.436 127.233C197.7 127.233 197.939 127.196 198.152 127.122C198.368 127.045 198.554 126.932 198.71 126.781C198.866 126.628 198.987 126.437 199.072 126.21L200.044 126.483C199.942 126.812 199.77 127.102 199.528 127.352C199.287 127.599 198.988 127.793 198.633 127.932C198.278 128.068 197.879 128.136 197.436 128.136ZM206.552 122.92L205.649 123.176C205.592 123.026 205.508 122.879 205.397 122.737C205.29 122.592 205.142 122.473 204.954 122.379C204.767 122.286 204.527 122.239 204.234 122.239C203.834 122.239 203.5 122.331 203.233 122.516C202.968 122.697 202.836 122.929 202.836 123.21C202.836 123.46 202.927 123.658 203.109 123.803C203.291 123.947 203.575 124.068 203.961 124.165L204.933 124.403C205.518 124.545 205.954 124.763 206.241 125.055C206.528 125.345 206.672 125.719 206.672 126.176C206.672 126.551 206.564 126.886 206.348 127.182C206.135 127.477 205.836 127.71 205.453 127.881C205.069 128.051 204.623 128.136 204.115 128.136C203.447 128.136 202.895 127.991 202.457 127.702C202.02 127.412 201.743 126.989 201.626 126.432L202.581 126.193C202.672 126.545 202.843 126.81 203.096 126.986C203.352 127.162 203.686 127.25 204.098 127.25C204.566 127.25 204.939 127.151 205.214 126.952C205.493 126.75 205.632 126.509 205.632 126.227C205.632 126 205.552 125.81 205.393 125.656C205.234 125.5 204.99 125.384 204.66 125.307L203.569 125.051C202.97 124.909 202.53 124.689 202.248 124.391C201.97 124.089 201.831 123.713 201.831 123.261C201.831 122.892 201.934 122.565 202.142 122.281C202.352 121.997 202.638 121.774 202.998 121.612C203.362 121.45 203.774 121.369 204.234 121.369C204.882 121.369 205.39 121.511 205.76 121.795C206.132 122.08 206.396 122.455 206.552 122.92ZM208.425 128V121.455H209.431V128H208.425ZM208.937 120.364C208.741 120.364 208.572 120.297 208.43 120.163C208.291 120.03 208.221 119.869 208.221 119.682C208.221 119.494 208.291 119.334 208.43 119.2C208.572 119.067 208.741 119 208.937 119C209.133 119 209.3 119.067 209.44 119.2C209.582 119.334 209.653 119.494 209.653 119.682C209.653 119.869 209.582 120.03 209.44 120.163C209.3 120.297 209.133 120.364 208.937 120.364ZM214.155 130.591C213.669 130.591 213.252 130.528 212.902 130.403C212.553 130.281 212.262 130.119 212.029 129.918C211.799 129.719 211.615 129.506 211.479 129.278L212.28 128.716C212.371 128.835 212.486 128.972 212.625 129.125C212.765 129.281 212.955 129.416 213.196 129.53C213.441 129.646 213.76 129.705 214.155 129.705C214.684 129.705 215.12 129.577 215.463 129.321C215.807 129.065 215.979 128.665 215.979 128.119V126.79H215.894C215.82 126.909 215.715 127.057 215.578 127.233C215.445 127.406 215.252 127.561 214.999 127.697C214.749 127.831 214.411 127.898 213.985 127.898C213.456 127.898 212.982 127.773 212.561 127.523C212.144 127.273 211.813 126.909 211.569 126.432C211.327 125.955 211.206 125.375 211.206 124.693C211.206 124.023 211.324 123.439 211.56 122.942C211.796 122.442 212.124 122.055 212.544 121.783C212.965 121.507 213.451 121.369 214.002 121.369C214.428 121.369 214.766 121.44 215.016 121.582C215.269 121.722 215.462 121.881 215.595 122.06C215.732 122.236 215.837 122.381 215.911 122.494H216.013V121.455H216.985V128.188C216.985 128.75 216.857 129.207 216.601 129.56C216.348 129.915 216.007 130.175 215.578 130.339C215.152 130.507 214.678 130.591 214.155 130.591ZM214.121 126.994C214.524 126.994 214.865 126.902 215.144 126.717C215.422 126.533 215.634 126.267 215.779 125.92C215.924 125.574 215.996 125.159 215.996 124.676C215.996 124.205 215.925 123.788 215.783 123.428C215.641 123.067 215.431 122.784 215.152 122.58C214.874 122.375 214.53 122.273 214.121 122.273C213.695 122.273 213.34 122.381 213.056 122.597C212.774 122.812 212.563 123.102 212.421 123.466C212.282 123.83 212.212 124.233 212.212 124.676C212.212 125.131 212.283 125.533 212.425 125.882C212.57 126.229 212.783 126.501 213.064 126.7C213.348 126.896 213.701 126.994 214.121 126.994ZM220.071 124.062V128H219.066V121.455H220.037V122.477H220.122C220.276 122.145 220.509 121.878 220.821 121.676C221.134 121.472 221.537 121.369 222.032 121.369C222.475 121.369 222.862 121.46 223.195 121.642C223.527 121.821 223.786 122.094 223.97 122.46C224.155 122.824 224.247 123.284 224.247 123.841V128H223.242V123.909C223.242 123.395 223.108 122.994 222.841 122.707C222.574 122.418 222.208 122.273 221.742 122.273C221.421 122.273 221.134 122.342 220.881 122.482C220.631 122.621 220.434 122.824 220.289 123.091C220.144 123.358 220.071 123.682 220.071 124.062ZM229.069 128.136C228.439 128.136 227.895 127.997 227.437 127.719C226.983 127.438 226.632 127.045 226.385 126.543C226.14 126.037 226.018 125.449 226.018 124.778C226.018 124.108 226.14 123.517 226.385 123.006C226.632 122.491 226.976 122.091 227.416 121.804C227.859 121.514 228.376 121.369 228.967 121.369C229.308 121.369 229.645 121.426 229.977 121.54C230.31 121.653 230.612 121.838 230.885 122.094C231.158 122.347 231.375 122.682 231.537 123.099C231.699 123.517 231.78 124.031 231.78 124.642V125.068H226.734V124.199H230.757C230.757 123.83 230.683 123.5 230.535 123.21C230.39 122.92 230.183 122.692 229.913 122.524C229.646 122.357 229.331 122.273 228.967 122.273C228.567 122.273 228.22 122.372 227.927 122.571C227.638 122.767 227.415 123.023 227.258 123.338C227.102 123.653 227.024 123.991 227.024 124.352V124.932C227.024 125.426 227.109 125.845 227.28 126.189C227.453 126.53 227.693 126.79 228 126.969C228.307 127.145 228.663 127.233 229.069 127.233C229.334 127.233 229.572 127.196 229.785 127.122C230.001 127.045 230.187 126.932 230.344 126.781C230.5 126.628 230.621 126.437 230.706 126.21L231.677 126.483C231.575 126.812 231.403 127.102 231.162 127.352C230.92 127.599 230.622 127.793 230.267 127.932C229.912 128.068 229.513 128.136 229.069 128.136ZM233.55 128V121.455H234.521V122.443H234.589C234.709 122.119 234.925 121.857 235.237 121.655C235.55 121.453 235.902 121.352 236.294 121.352C236.368 121.352 236.46 121.354 236.571 121.357C236.682 121.359 236.765 121.364 236.822 121.369V122.392C236.788 122.384 236.71 122.371 236.588 122.354C236.469 122.334 236.342 122.324 236.209 122.324C235.89 122.324 235.606 122.391 235.356 122.524C235.109 122.655 234.913 122.837 234.768 123.07C234.626 123.3 234.555 123.562 234.555 123.858V128H233.55Z"
                                fill="#303030" />
                            <rect x="154.5" y="84.5" width="113" height="63" rx="7.5" stroke="#C4C4C4" />
                            <rect x="154.5" y="173.5" width="113" height="63" rx="7.5" fill="white" />
                            <path
                                d="M173.252 195.455C173.201 195.023 172.993 194.688 172.63 194.449C172.266 194.21 171.82 194.091 171.292 194.091C170.905 194.091 170.567 194.153 170.278 194.278C169.991 194.403 169.766 194.575 169.604 194.794C169.445 195.013 169.366 195.261 169.366 195.54C169.366 195.773 169.421 195.973 169.532 196.141C169.645 196.305 169.79 196.443 169.966 196.554C170.143 196.662 170.327 196.751 170.52 196.822C170.714 196.891 170.891 196.946 171.053 196.989L171.939 197.227C172.167 197.287 172.42 197.369 172.698 197.474C172.979 197.58 173.248 197.723 173.503 197.905C173.762 198.084 173.975 198.314 174.143 198.595C174.31 198.876 174.394 199.222 174.394 199.631C174.394 200.102 174.27 200.528 174.023 200.909C173.779 201.29 173.421 201.592 172.949 201.817C172.481 202.041 171.911 202.153 171.241 202.153C170.616 202.153 170.074 202.053 169.617 201.851C169.162 201.649 168.805 201.368 168.543 201.007C168.285 200.646 168.138 200.227 168.104 199.75H169.195C169.224 200.08 169.334 200.352 169.528 200.568C169.724 200.781 169.971 200.94 170.269 201.045C170.57 201.148 170.894 201.199 171.241 201.199C171.644 201.199 172.006 201.134 172.327 201.003C172.648 200.869 172.903 200.685 173.09 200.449C173.278 200.21 173.371 199.932 173.371 199.614C173.371 199.324 173.29 199.088 173.128 198.906C172.966 198.724 172.753 198.577 172.489 198.463C172.225 198.349 171.939 198.25 171.633 198.165L170.559 197.858C169.877 197.662 169.337 197.382 168.939 197.018C168.542 196.655 168.343 196.179 168.343 195.591C168.343 195.102 168.475 194.676 168.739 194.312C169.006 193.946 169.364 193.662 169.813 193.46C170.265 193.256 170.769 193.153 171.326 193.153C171.888 193.153 172.388 193.254 172.826 193.456C173.263 193.655 173.61 193.928 173.866 194.274C174.124 194.621 174.26 195.014 174.275 195.455H173.252ZM178.98 202.136C178.349 202.136 177.805 201.997 177.347 201.719C176.893 201.438 176.542 201.045 176.295 200.543C176.051 200.037 175.928 199.449 175.928 198.778C175.928 198.108 176.051 197.517 176.295 197.006C176.542 196.491 176.886 196.091 177.326 195.804C177.769 195.514 178.286 195.369 178.877 195.369C179.218 195.369 179.555 195.426 179.887 195.54C180.22 195.653 180.522 195.838 180.795 196.094C181.068 196.347 181.285 196.682 181.447 197.099C181.609 197.517 181.69 198.031 181.69 198.642V199.068H176.644V198.199H180.667C180.667 197.83 180.593 197.5 180.445 197.21C180.301 196.92 180.093 196.692 179.823 196.524C179.556 196.357 179.241 196.273 178.877 196.273C178.477 196.273 178.13 196.372 177.837 196.571C177.548 196.767 177.325 197.023 177.168 197.338C177.012 197.653 176.934 197.991 176.934 198.352V198.932C176.934 199.426 177.019 199.845 177.19 200.189C177.363 200.53 177.603 200.79 177.91 200.969C178.217 201.145 178.573 201.233 178.98 201.233C179.244 201.233 179.482 201.196 179.695 201.122C179.911 201.045 180.097 200.932 180.254 200.781C180.41 200.628 180.531 200.437 180.616 200.21L181.587 200.483C181.485 200.812 181.313 201.102 181.072 201.352C180.83 201.599 180.532 201.793 180.177 201.932C179.822 202.068 179.423 202.136 178.98 202.136ZM184.465 198.062V202H183.46V195.455H184.431V196.477H184.516C184.67 196.145 184.903 195.878 185.215 195.676C185.528 195.472 185.931 195.369 186.426 195.369C186.869 195.369 187.256 195.46 187.589 195.642C187.921 195.821 188.18 196.094 188.364 196.46C188.549 196.824 188.641 197.284 188.641 197.841V202H187.636V197.909C187.636 197.395 187.502 196.994 187.235 196.707C186.968 196.418 186.602 196.273 186.136 196.273C185.815 196.273 185.528 196.342 185.275 196.482C185.025 196.621 184.827 196.824 184.683 197.091C184.538 197.358 184.465 197.682 184.465 198.062ZM190.719 202V195.455H191.725V202H190.719ZM191.23 194.364C191.034 194.364 190.865 194.297 190.723 194.163C190.584 194.03 190.515 193.869 190.515 193.682C190.515 193.494 190.584 193.334 190.723 193.2C190.865 193.067 191.034 193 191.23 193C191.427 193 191.594 193.067 191.733 193.2C191.875 193.334 191.946 193.494 191.946 193.682C191.946 193.869 191.875 194.03 191.733 194.163C191.594 194.297 191.427 194.364 191.23 194.364ZM196.466 202.136C195.875 202.136 195.356 201.996 194.91 201.714C194.467 201.433 194.121 201.04 193.871 200.534C193.624 200.028 193.5 199.437 193.5 198.761C193.5 198.08 193.624 197.484 193.871 196.976C194.121 196.467 194.467 196.072 194.91 195.791C195.356 195.51 195.875 195.369 196.466 195.369C197.057 195.369 197.574 195.51 198.017 195.791C198.463 196.072 198.81 196.467 199.057 196.976C199.307 197.484 199.432 198.08 199.432 198.761C199.432 199.437 199.307 200.028 199.057 200.534C198.81 201.04 198.463 201.433 198.017 201.714C197.574 201.996 197.057 202.136 196.466 202.136ZM196.466 201.233C196.915 201.233 197.284 201.118 197.574 200.888C197.864 200.658 198.078 200.355 198.217 199.98C198.356 199.605 198.426 199.199 198.426 198.761C198.426 198.324 198.356 197.916 198.217 197.538C198.078 197.161 197.864 196.855 197.574 196.622C197.284 196.389 196.915 196.273 196.466 196.273C196.017 196.273 195.648 196.389 195.358 196.622C195.068 196.855 194.854 197.161 194.714 197.538C194.575 197.916 194.506 198.324 194.506 198.761C194.506 199.199 194.575 199.605 194.714 199.98C194.854 200.355 195.068 200.658 195.358 200.888C195.648 201.118 196.017 201.233 196.466 201.233ZM201.207 202V195.455H202.179V196.443H202.247C202.366 196.119 202.582 195.857 202.894 195.655C203.207 195.453 203.559 195.352 203.951 195.352C204.025 195.352 204.117 195.354 204.228 195.357C204.339 195.359 204.423 195.364 204.48 195.369V196.392C204.446 196.384 204.367 196.371 204.245 196.354C204.126 196.334 204 196.324 203.866 196.324C203.548 196.324 203.264 196.391 203.014 196.524C202.767 196.655 202.571 196.837 202.426 197.07C202.284 197.3 202.213 197.562 202.213 197.858V202H201.207ZM209.663 202V193.273H212.612C213.297 193.273 213.856 193.396 214.291 193.643C214.728 193.888 215.052 194.219 215.263 194.636C215.473 195.054 215.578 195.52 215.578 196.034C215.578 196.548 215.473 197.016 215.263 197.436C215.055 197.857 214.734 198.192 214.3 198.442C213.865 198.689 213.308 198.812 212.629 198.812H210.515V197.875H212.595C213.064 197.875 213.44 197.794 213.724 197.632C214.008 197.47 214.214 197.251 214.342 196.976C214.473 196.697 214.538 196.384 214.538 196.034C214.538 195.685 214.473 195.372 214.342 195.097C214.214 194.821 214.007 194.605 213.72 194.449C213.433 194.29 213.052 194.21 212.578 194.21H210.72V202H209.663ZM217.384 202V195.455H218.356V196.443H218.424C218.543 196.119 218.759 195.857 219.071 195.655C219.384 195.453 219.736 195.352 220.128 195.352C220.202 195.352 220.294 195.354 220.405 195.357C220.516 195.359 220.6 195.364 220.657 195.369V196.392C220.623 196.384 220.544 196.371 220.422 196.354C220.303 196.334 220.177 196.324 220.043 196.324C219.725 196.324 219.441 196.391 219.191 196.524C218.944 196.655 218.748 196.837 218.603 197.07C218.461 197.3 218.39 197.562 218.39 197.858V202H217.384ZM224.549 202.136C223.958 202.136 223.439 201.996 222.993 201.714C222.55 201.433 222.204 201.04 221.954 200.534C221.706 200.028 221.583 199.437 221.583 198.761C221.583 198.08 221.706 197.484 221.954 196.976C222.204 196.467 222.55 196.072 222.993 195.791C223.439 195.51 223.958 195.369 224.549 195.369C225.14 195.369 225.657 195.51 226.1 195.791C226.546 196.072 226.892 196.467 227.14 196.976C227.39 197.484 227.515 198.08 227.515 198.761C227.515 199.437 227.39 200.028 227.14 200.534C226.892 201.04 226.546 201.433 226.1 201.714C225.657 201.996 225.14 202.136 224.549 202.136ZM224.549 201.233C224.998 201.233 225.367 201.118 225.657 200.888C225.946 200.658 226.161 200.355 226.3 199.98C226.439 199.605 226.509 199.199 226.509 198.761C226.509 198.324 226.439 197.916 226.3 197.538C226.161 197.161 225.946 196.855 225.657 196.622C225.367 196.389 224.998 196.273 224.549 196.273C224.1 196.273 223.731 196.389 223.441 196.622C223.151 196.855 222.936 197.161 222.797 197.538C222.658 197.916 222.588 198.324 222.588 198.761C222.588 199.199 222.658 199.605 222.797 199.98C222.936 200.355 223.151 200.658 223.441 200.888C223.731 201.118 224.1 201.233 224.549 201.233ZM231.761 202.136C231.216 202.136 230.734 201.999 230.317 201.723C229.899 201.445 229.572 201.053 229.337 200.547C229.101 200.038 228.983 199.438 228.983 198.744C228.983 198.057 229.101 197.46 229.337 196.955C229.572 196.449 229.901 196.058 230.321 195.783C230.741 195.507 231.227 195.369 231.778 195.369C232.205 195.369 232.541 195.44 232.788 195.582C233.038 195.722 233.229 195.881 233.359 196.06C233.493 196.236 233.597 196.381 233.67 196.494H233.756V193.273H234.761V202H233.79V200.994H233.67C233.597 201.114 233.491 201.264 233.355 201.446C233.219 201.625 233.024 201.786 232.771 201.928C232.518 202.067 232.182 202.136 231.761 202.136ZM231.898 201.233C232.301 201.233 232.642 201.128 232.92 200.918C233.199 200.705 233.41 200.411 233.555 200.036C233.7 199.658 233.773 199.222 233.773 198.727C233.773 198.239 233.702 197.811 233.56 197.445C233.418 197.075 233.207 196.788 232.929 196.584C232.651 196.376 232.307 196.273 231.898 196.273C231.472 196.273 231.116 196.382 230.832 196.601C230.551 196.817 230.339 197.111 230.197 197.483C230.058 197.852 229.989 198.267 229.989 198.727C229.989 199.193 230.06 199.616 230.202 199.997C230.347 200.375 230.56 200.676 230.841 200.901C231.125 201.122 231.477 201.233 231.898 201.233ZM241.108 199.324V195.455H242.114V202H241.108V200.892H241.04C240.886 201.224 240.648 201.507 240.324 201.74C240 201.97 239.591 202.085 239.097 202.085C238.687 202.085 238.324 201.996 238.006 201.817C237.687 201.635 237.437 201.362 237.256 200.999C237.074 200.632 236.983 200.17 236.983 199.614V195.455H237.989V199.545C237.989 200.023 238.122 200.403 238.389 200.688C238.659 200.972 239.003 201.114 239.42 201.114C239.67 201.114 239.925 201.05 240.183 200.922C240.445 200.794 240.663 200.598 240.839 200.334C241.018 200.07 241.108 199.733 241.108 199.324ZM246.855 202.136C246.241 202.136 245.713 201.991 245.269 201.702C244.826 201.412 244.485 201.013 244.247 200.504C244.008 199.996 243.889 199.415 243.889 198.761C243.889 198.097 244.011 197.51 244.255 197.001C244.502 196.49 244.846 196.091 245.286 195.804C245.73 195.514 246.247 195.369 246.838 195.369C247.298 195.369 247.713 195.455 248.082 195.625C248.451 195.795 248.754 196.034 248.99 196.341C249.225 196.648 249.372 197.006 249.428 197.415H248.423C248.346 197.116 248.176 196.852 247.911 196.622C247.65 196.389 247.298 196.273 246.855 196.273C246.463 196.273 246.119 196.375 245.823 196.58C245.531 196.781 245.302 197.067 245.137 197.436C244.975 197.803 244.894 198.233 244.894 198.727C244.894 199.233 244.974 199.673 245.133 200.048C245.295 200.423 245.522 200.714 245.815 200.922C246.11 201.129 246.457 201.233 246.855 201.233C247.116 201.233 247.353 201.188 247.566 201.097C247.779 201.006 247.96 200.875 248.107 200.705C248.255 200.534 248.36 200.33 248.423 200.091H249.428C249.372 200.477 249.231 200.825 249.007 201.135C248.785 201.442 248.491 201.686 248.125 201.868C247.761 202.047 247.338 202.136 246.855 202.136ZM253.985 195.455V196.307H250.593V195.455H253.985ZM251.582 193.886H252.588V200.125C252.588 200.409 252.629 200.622 252.711 200.764C252.796 200.903 252.904 200.997 253.035 201.045C253.168 201.091 253.309 201.114 253.457 201.114C253.568 201.114 253.659 201.108 253.73 201.097C253.801 201.082 253.857 201.071 253.9 201.062L254.105 201.966C254.036 201.991 253.941 202.017 253.819 202.043C253.697 202.071 253.542 202.085 253.355 202.085C253.07 202.085 252.792 202.024 252.519 201.902C252.249 201.78 252.025 201.594 251.846 201.344C251.67 201.094 251.582 200.778 251.582 200.398V193.886ZM188.656 217H185.963V208.273H188.775C189.622 208.273 190.346 208.447 190.949 208.797C191.551 209.143 192.013 209.642 192.334 210.293C192.655 210.94 192.815 211.716 192.815 212.619C192.815 213.528 192.653 214.311 192.329 214.967C192.006 215.621 191.534 216.124 190.915 216.476C190.295 216.825 189.542 217 188.656 217ZM187.02 216.062H188.588C189.31 216.062 189.908 215.923 190.382 215.645C190.856 215.366 191.21 214.97 191.443 214.456C191.676 213.942 191.792 213.33 191.792 212.619C191.792 211.915 191.677 211.308 191.447 210.8C191.217 210.288 190.873 209.896 190.416 209.624C189.959 209.348 189.389 209.21 188.707 209.21H187.02V216.062ZM197.436 217.136C196.805 217.136 196.261 216.997 195.804 216.719C195.349 216.438 194.998 216.045 194.751 215.543C194.507 215.037 194.385 214.449 194.385 213.778C194.385 213.108 194.507 212.517 194.751 212.006C194.998 211.491 195.342 211.091 195.782 210.804C196.226 210.514 196.743 210.369 197.334 210.369C197.675 210.369 198.011 210.426 198.344 210.54C198.676 210.653 198.978 210.838 199.251 211.094C199.524 211.347 199.741 211.682 199.903 212.099C200.065 212.517 200.146 213.031 200.146 213.642V214.068H195.101V213.199H199.123C199.123 212.83 199.05 212.5 198.902 212.21C198.757 211.92 198.55 211.692 198.28 211.524C198.013 211.357 197.697 211.273 197.334 211.273C196.933 211.273 196.586 211.372 196.294 211.571C196.004 211.767 195.781 212.023 195.625 212.338C195.469 212.653 195.39 212.991 195.39 213.352V213.932C195.39 214.426 195.476 214.845 195.646 215.189C195.819 215.53 196.059 215.79 196.366 215.969C196.673 216.145 197.03 216.233 197.436 216.233C197.7 216.233 197.939 216.196 198.152 216.122C198.368 216.045 198.554 215.932 198.71 215.781C198.866 215.628 198.987 215.437 199.072 215.21L200.044 215.483C199.942 215.812 199.77 216.102 199.528 216.352C199.287 216.599 198.988 216.793 198.633 216.932C198.278 217.068 197.879 217.136 197.436 217.136ZM206.552 211.92L205.649 212.176C205.592 212.026 205.508 211.879 205.397 211.737C205.29 211.592 205.142 211.473 204.954 211.379C204.767 211.286 204.527 211.239 204.234 211.239C203.834 211.239 203.5 211.331 203.233 211.516C202.968 211.697 202.836 211.929 202.836 212.21C202.836 212.46 202.927 212.658 203.109 212.803C203.291 212.947 203.575 213.068 203.961 213.165L204.933 213.403C205.518 213.545 205.954 213.763 206.241 214.055C206.528 214.345 206.672 214.719 206.672 215.176C206.672 215.551 206.564 215.886 206.348 216.182C206.135 216.477 205.836 216.71 205.453 216.881C205.069 217.051 204.623 217.136 204.115 217.136C203.447 217.136 202.895 216.991 202.457 216.702C202.02 216.412 201.743 215.989 201.626 215.432L202.581 215.193C202.672 215.545 202.843 215.81 203.096 215.986C203.352 216.162 203.686 216.25 204.098 216.25C204.566 216.25 204.939 216.151 205.214 215.952C205.493 215.75 205.632 215.509 205.632 215.227C205.632 215 205.552 214.81 205.393 214.656C205.234 214.5 204.99 214.384 204.66 214.307L203.569 214.051C202.97 213.909 202.53 213.689 202.248 213.391C201.97 213.089 201.831 212.713 201.831 212.261C201.831 211.892 201.934 211.565 202.142 211.281C202.352 210.997 202.638 210.774 202.998 210.612C203.362 210.45 203.774 210.369 204.234 210.369C204.882 210.369 205.39 210.511 205.76 210.795C206.132 211.08 206.396 211.455 206.552 211.92ZM208.425 217V210.455H209.431V217H208.425ZM208.937 209.364C208.741 209.364 208.572 209.297 208.43 209.163C208.291 209.03 208.221 208.869 208.221 208.682C208.221 208.494 208.291 208.334 208.43 208.2C208.572 208.067 208.741 208 208.937 208C209.133 208 209.3 208.067 209.44 208.2C209.582 208.334 209.653 208.494 209.653 208.682C209.653 208.869 209.582 209.03 209.44 209.163C209.3 209.297 209.133 209.364 208.937 209.364ZM214.155 219.591C213.669 219.591 213.252 219.528 212.902 219.403C212.553 219.281 212.262 219.119 212.029 218.918C211.799 218.719 211.615 218.506 211.479 218.278L212.28 217.716C212.371 217.835 212.486 217.972 212.625 218.125C212.765 218.281 212.955 218.416 213.196 218.53C213.441 218.646 213.76 218.705 214.155 218.705C214.684 218.705 215.12 218.577 215.463 218.321C215.807 218.065 215.979 217.665 215.979 217.119V215.79H215.894C215.82 215.909 215.715 216.057 215.578 216.233C215.445 216.406 215.252 216.561 214.999 216.697C214.749 216.831 214.411 216.898 213.985 216.898C213.456 216.898 212.982 216.773 212.561 216.523C212.144 216.273 211.813 215.909 211.569 215.432C211.327 214.955 211.206 214.375 211.206 213.693C211.206 213.023 211.324 212.439 211.56 211.942C211.796 211.442 212.124 211.055 212.544 210.783C212.965 210.507 213.451 210.369 214.002 210.369C214.428 210.369 214.766 210.44 215.016 210.582C215.269 210.722 215.462 210.881 215.595 211.06C215.732 211.236 215.837 211.381 215.911 211.494H216.013V210.455H216.985V217.188C216.985 217.75 216.857 218.207 216.601 218.56C216.348 218.915 216.007 219.175 215.578 219.339C215.152 219.507 214.678 219.591 214.155 219.591ZM214.121 215.994C214.524 215.994 214.865 215.902 215.144 215.717C215.422 215.533 215.634 215.267 215.779 214.92C215.924 214.574 215.996 214.159 215.996 213.676C215.996 213.205 215.925 212.788 215.783 212.428C215.641 212.067 215.431 211.784 215.152 211.58C214.874 211.375 214.53 211.273 214.121 211.273C213.695 211.273 213.34 211.381 213.056 211.597C212.774 211.812 212.563 212.102 212.421 212.466C212.282 212.83 212.212 213.233 212.212 213.676C212.212 214.131 212.283 214.533 212.425 214.882C212.57 215.229 212.783 215.501 213.064 215.7C213.348 215.896 213.701 215.994 214.121 215.994ZM220.071 213.062V217H219.066V210.455H220.037V211.477H220.122C220.276 211.145 220.509 210.878 220.821 210.676C221.134 210.472 221.537 210.369 222.032 210.369C222.475 210.369 222.862 210.46 223.195 210.642C223.527 210.821 223.786 211.094 223.97 211.46C224.155 211.824 224.247 212.284 224.247 212.841V217H223.242V212.909C223.242 212.395 223.108 211.994 222.841 211.707C222.574 211.418 222.208 211.273 221.742 211.273C221.421 211.273 221.134 211.342 220.881 211.482C220.631 211.621 220.434 211.824 220.289 212.091C220.144 212.358 220.071 212.682 220.071 213.062ZM229.069 217.136C228.439 217.136 227.895 216.997 227.437 216.719C226.983 216.438 226.632 216.045 226.385 215.543C226.14 215.037 226.018 214.449 226.018 213.778C226.018 213.108 226.14 212.517 226.385 212.006C226.632 211.491 226.976 211.091 227.416 210.804C227.859 210.514 228.376 210.369 228.967 210.369C229.308 210.369 229.645 210.426 229.977 210.54C230.31 210.653 230.612 210.838 230.885 211.094C231.158 211.347 231.375 211.682 231.537 212.099C231.699 212.517 231.78 213.031 231.78 213.642V214.068H226.734V213.199H230.757C230.757 212.83 230.683 212.5 230.535 212.21C230.39 211.92 230.183 211.692 229.913 211.524C229.646 211.357 229.331 211.273 228.967 211.273C228.567 211.273 228.22 211.372 227.927 211.571C227.638 211.767 227.415 212.023 227.258 212.338C227.102 212.653 227.024 212.991 227.024 213.352V213.932C227.024 214.426 227.109 214.845 227.28 215.189C227.453 215.53 227.693 215.79 228 215.969C228.307 216.145 228.663 216.233 229.069 216.233C229.334 216.233 229.572 216.196 229.785 216.122C230.001 216.045 230.187 215.932 230.344 215.781C230.5 215.628 230.621 215.437 230.706 215.21L231.677 215.483C231.575 215.812 231.403 216.102 231.162 216.352C230.92 216.599 230.622 216.793 230.267 216.932C229.912 217.068 229.513 217.136 229.069 217.136ZM233.55 217V210.455H234.521V211.443H234.589C234.709 211.119 234.925 210.857 235.237 210.655C235.55 210.453 235.902 210.352 236.294 210.352C236.368 210.352 236.46 210.354 236.571 210.357C236.682 210.359 236.765 210.364 236.822 210.369V211.392C236.788 211.384 236.71 211.371 236.588 211.354C236.469 211.334 236.342 211.324 236.209 211.324C235.89 211.324 235.606 211.391 235.356 211.524C235.109 211.655 234.913 211.837 234.768 212.07C234.626 212.3 234.555 212.562 234.555 212.858V217H233.55Z"
                                fill="#303030" />
                            <rect x="154.5" y="173.5" width="113" height="63" rx="7.5" stroke="#C4C4C4" />
                            <rect x="0.5" y="173.5" width="113" height="63" rx="7.5" fill="white" />
                            <path
                                d="M44.1651 195.455C44.114 195.023 43.9066 194.688 43.5429 194.449C43.1793 194.21 42.7333 194.091 42.2049 194.091C41.8185 194.091 41.4804 194.153 41.1907 194.278C40.9037 194.403 40.6793 194.575 40.5174 194.794C40.3583 195.013 40.2787 195.261 40.2787 195.54C40.2787 195.773 40.3341 195.973 40.4449 196.141C40.5586 196.305 40.7034 196.443 40.8796 196.554C41.0557 196.662 41.2404 196.751 41.4336 196.822C41.6267 196.891 41.8043 196.946 41.9662 196.989L42.8526 197.227C43.0799 197.287 43.3327 197.369 43.6111 197.474C43.8924 197.58 44.1608 197.723 44.4165 197.905C44.675 198.084 44.8881 198.314 45.0557 198.595C45.2233 198.876 45.3071 199.222 45.3071 199.631C45.3071 200.102 45.1836 200.528 44.9364 200.909C44.6921 201.29 44.3341 201.592 43.8625 201.817C43.3938 202.041 42.8242 202.153 42.1537 202.153C41.5287 202.153 40.9875 202.053 40.5301 201.851C40.0756 201.649 39.7176 201.368 39.4563 201.007C39.1978 200.646 39.0515 200.227 39.0174 199.75H40.1083C40.1367 200.08 40.2475 200.352 40.4407 200.568C40.6367 200.781 40.8838 200.94 41.1821 201.045C41.4833 201.148 41.8071 201.199 42.1537 201.199C42.5571 201.199 42.9194 201.134 43.2404 201.003C43.5614 200.869 43.8157 200.685 44.0032 200.449C44.1907 200.21 44.2844 199.932 44.2844 199.614C44.2844 199.324 44.2034 199.088 44.0415 198.906C43.8796 198.724 43.6665 198.577 43.4023 198.463C43.1381 198.349 42.8526 198.25 42.5458 198.165L41.4719 197.858C40.7901 197.662 40.2503 197.382 39.8526 197.018C39.4549 196.655 39.256 196.179 39.256 195.591C39.256 195.102 39.3881 194.676 39.6523 194.312C39.9194 193.946 40.2773 193.662 40.7262 193.46C41.1779 193.256 41.6821 193.153 42.239 193.153C42.8015 193.153 43.3015 193.254 43.739 193.456C44.1765 193.655 44.523 193.928 44.7787 194.274C45.0373 194.621 45.1736 195.014 45.1878 195.455H44.1651ZM49.8927 202.136C49.262 202.136 48.7179 201.997 48.2606 201.719C47.806 201.438 47.4552 201.045 47.208 200.543C46.9637 200.037 46.8415 199.449 46.8415 198.778C46.8415 198.108 46.9637 197.517 47.208 197.006C47.4552 196.491 47.7989 196.091 48.2393 195.804C48.6824 195.514 49.1995 195.369 49.7904 195.369C50.1313 195.369 50.4679 195.426 50.8003 195.54C51.1327 195.653 51.4353 195.838 51.708 196.094C51.9807 196.347 52.1981 196.682 52.36 197.099C52.5219 197.517 52.6029 198.031 52.6029 198.642V199.068H47.5574V198.199H51.5802C51.5802 197.83 51.5063 197.5 51.3586 197.21C51.2137 196.92 51.0063 196.692 50.7364 196.524C50.4694 196.357 50.154 196.273 49.7904 196.273C49.3898 196.273 49.0432 196.372 48.7506 196.571C48.4608 196.767 48.2378 197.023 48.0816 197.338C47.9253 197.653 47.8472 197.991 47.8472 198.352V198.932C47.8472 199.426 47.9324 199.845 48.1029 200.189C48.2762 200.53 48.5162 200.79 48.8231 200.969C49.1299 201.145 49.4864 201.233 49.8927 201.233C50.1569 201.233 50.3955 201.196 50.6086 201.122C50.8245 201.045 51.0106 200.932 51.1668 200.781C51.3231 200.628 51.4438 200.437 51.529 200.21L52.5006 200.483C52.3983 200.812 52.2265 201.102 51.985 201.352C51.7435 201.599 51.4452 201.793 51.0901 201.932C50.735 202.068 50.3358 202.136 49.8927 202.136ZM55.3784 198.062V202H54.3727V195.455H55.3443V196.477H55.4295C55.5829 196.145 55.8159 195.878 56.1284 195.676C56.4409 195.472 56.8443 195.369 57.3386 195.369C57.7818 195.369 58.1696 195.46 58.502 195.642C58.8344 195.821 59.0929 196.094 59.2775 196.46C59.4622 196.824 59.5545 197.284 59.5545 197.841V202H58.5489V197.909C58.5489 197.395 58.4153 196.994 58.1483 196.707C57.8812 196.418 57.5148 196.273 57.0489 196.273C56.7278 196.273 56.4409 196.342 56.1881 196.482C55.9381 196.621 55.7406 196.824 55.5957 197.091C55.4508 197.358 55.3784 197.682 55.3784 198.062ZM61.6323 202V195.455H62.6379V202H61.6323ZM62.1436 194.364C61.9476 194.364 61.7786 194.297 61.6365 194.163C61.4973 194.03 61.4277 193.869 61.4277 193.682C61.4277 193.494 61.4973 193.334 61.6365 193.2C61.7786 193.067 61.9476 193 62.1436 193C62.3396 193 62.5073 193.067 62.6465 193.2C62.7885 193.334 62.8595 193.494 62.8595 193.682C62.8595 193.869 62.7885 194.03 62.6465 194.163C62.5073 194.297 62.3396 194.364 62.1436 194.364ZM67.379 202.136C66.7881 202.136 66.2696 201.996 65.8236 201.714C65.3804 201.433 65.0338 201.04 64.7838 200.534C64.5367 200.028 64.4131 199.437 64.4131 198.761C64.4131 198.08 64.5367 197.484 64.7838 196.976C65.0338 196.467 65.3804 196.072 65.8236 195.791C66.2696 195.51 66.7881 195.369 67.379 195.369C67.9699 195.369 68.487 195.51 68.9301 195.791C69.3762 196.072 69.7227 196.467 69.9699 196.976C70.2199 197.484 70.3449 198.08 70.3449 198.761C70.3449 199.437 70.2199 200.028 69.9699 200.534C69.7227 201.04 69.3762 201.433 68.9301 201.714C68.487 201.996 67.9699 202.136 67.379 202.136ZM67.379 201.233C67.8279 201.233 68.1972 201.118 68.487 200.888C68.7767 200.658 68.9912 200.355 69.1304 199.98C69.2696 199.605 69.3392 199.199 69.3392 198.761C69.3392 198.324 69.2696 197.916 69.1304 197.538C68.9912 197.161 68.7767 196.855 68.487 196.622C68.1972 196.389 67.8279 196.273 67.379 196.273C66.9301 196.273 66.5608 196.389 66.271 196.622C65.9813 196.855 65.7668 197.161 65.6276 197.538C65.4884 197.916 65.4188 198.324 65.4188 198.761C65.4188 199.199 65.4884 199.605 65.6276 199.98C65.7668 200.355 65.9813 200.658 66.271 200.888C66.5608 201.118 66.9301 201.233 67.379 201.233ZM72.1201 202V195.455H73.0917V196.443H73.1598C73.2792 196.119 73.4951 195.857 73.8076 195.655C74.1201 195.453 74.4723 195.352 74.8644 195.352C74.9382 195.352 75.0306 195.354 75.1414 195.357C75.2522 195.359 75.336 195.364 75.3928 195.369V196.392C75.3587 196.384 75.2806 196.371 75.1584 196.354C75.0391 196.334 74.9127 196.324 74.7792 196.324C74.461 196.324 74.1769 196.391 73.9269 196.524C73.6797 196.655 73.4837 196.837 73.3388 197.07C73.1968 197.3 73.1257 197.562 73.1257 197.858V202H72.1201ZM27.3458 208.273H28.4026V214.051C28.4026 214.648 28.262 215.18 27.9808 215.649C27.7023 216.115 27.3089 216.483 26.8004 216.753C26.2918 217.02 25.6952 217.153 25.0106 217.153C24.3259 217.153 23.7293 217.02 23.2208 216.753C22.7123 216.483 22.3174 216.115 22.0361 215.649C21.7577 215.18 21.6185 214.648 21.6185 214.051V208.273H22.6754V213.966C22.6754 214.392 22.7691 214.771 22.9566 215.104C23.1441 215.433 23.4111 215.693 23.7577 215.884C24.1072 216.071 24.5248 216.165 25.0106 216.165C25.4964 216.165 25.914 216.071 26.2634 215.884C26.6129 215.693 26.8799 215.433 27.0646 215.104C27.2521 214.771 27.3458 214.392 27.3458 213.966V208.273ZM31.2644 208.273L33.5144 211.903H33.5826L35.8326 208.273H37.0769L34.3326 212.636L37.0769 217H35.8326L33.5826 213.438H33.5144L31.2644 217H30.0201L32.8326 212.636L30.0201 208.273H31.2644ZM45.0005 217H42.3073V208.273H45.1198C45.9664 208.273 46.6908 208.447 47.2931 208.797C47.8954 209.143 48.357 209.642 48.678 210.293C48.999 210.94 49.1596 211.716 49.1596 212.619C49.1596 213.528 48.9976 214.311 48.6738 214.967C48.3499 215.621 47.8783 216.124 47.259 216.476C46.6397 216.825 45.8868 217 45.0005 217ZM43.3641 216.062H44.9323C45.6539 216.062 46.2519 215.923 46.7263 215.645C47.2008 215.366 47.5544 214.97 47.7874 214.456C48.0204 213.942 48.1368 213.33 48.1368 212.619C48.1368 211.915 48.0218 211.308 47.7917 210.8C47.5615 210.288 47.2178 209.896 46.7604 209.624C46.303 209.348 45.7334 209.21 45.0516 209.21H43.3641V216.062ZM53.7802 217.136C53.1496 217.136 52.6055 216.997 52.1481 216.719C51.6936 216.438 51.3427 216.045 51.0956 215.543C50.8513 215.037 50.7291 214.449 50.7291 213.778C50.7291 213.108 50.8513 212.517 51.0956 212.006C51.3427 211.491 51.6865 211.091 52.1268 210.804C52.57 210.514 53.0871 210.369 53.678 210.369C54.0189 210.369 54.3555 210.426 54.6879 210.54C55.0203 210.653 55.3229 210.838 55.5956 211.094C55.8683 211.347 56.0856 211.682 56.2476 212.099C56.4095 212.517 56.4905 213.031 56.4905 213.642V214.068H51.445V213.199H55.4677C55.4677 212.83 55.3939 212.5 55.2461 212.21C55.1013 211.92 54.8939 211.692 54.624 211.524C54.3569 211.357 54.0416 211.273 53.678 211.273C53.2774 211.273 52.9308 211.372 52.6382 211.571C52.3484 211.767 52.1254 212.023 51.9692 212.338C51.8129 212.653 51.7348 212.991 51.7348 213.352V213.932C51.7348 214.426 51.82 214.845 51.9905 215.189C52.1638 215.53 52.4038 215.79 52.7106 215.969C53.0175 216.145 53.374 216.233 53.7802 216.233C54.0444 216.233 54.2831 216.196 54.4961 216.122C54.7121 216.045 54.8981 215.932 55.0544 215.781C55.2106 215.628 55.3314 215.437 55.4166 215.21L56.3882 215.483C56.2859 215.812 56.114 216.102 55.8726 216.352C55.6311 216.599 55.3328 216.793 54.9777 216.932C54.6226 217.068 54.2234 217.136 53.7802 217.136ZM62.8967 211.92L61.9933 212.176C61.9364 212.026 61.8526 211.879 61.7418 211.737C61.6339 211.592 61.4862 211.473 61.2987 211.379C61.1112 211.286 60.8711 211.239 60.5785 211.239C60.1779 211.239 59.8441 211.331 59.5771 211.516C59.3129 211.697 59.1808 211.929 59.1808 212.21C59.1808 212.46 59.2717 212.658 59.4535 212.803C59.6353 212.947 59.9194 213.068 60.3058 213.165L61.2773 213.403C61.8626 213.545 62.2987 213.763 62.5856 214.055C62.8725 214.345 63.016 214.719 63.016 215.176C63.016 215.551 62.908 215.886 62.6921 216.182C62.479 216.477 62.1808 216.71 61.7972 216.881C61.4137 217.051 60.9677 217.136 60.4592 217.136C59.7915 217.136 59.239 216.991 58.8015 216.702C58.364 216.412 58.087 215.989 57.9705 215.432L58.9251 215.193C59.016 215.545 59.1879 215.81 59.4407 215.986C59.6964 216.162 60.0302 216.25 60.4421 216.25C60.9109 216.25 61.283 216.151 61.5586 215.952C61.837 215.75 61.9762 215.509 61.9762 215.227C61.9762 215 61.8967 214.81 61.7376 214.656C61.5785 214.5 61.3342 214.384 61.0046 214.307L59.9137 214.051C59.3143 213.909 58.8739 213.689 58.5927 213.391C58.3143 213.089 58.1751 212.713 58.1751 212.261C58.1751 211.892 58.2788 211.565 58.4862 211.281C58.6964 210.997 58.9819 210.774 59.3427 210.612C59.7063 210.45 60.1183 210.369 60.5785 210.369C61.2262 210.369 61.7347 210.511 62.104 210.795C62.4762 211.08 62.7404 211.455 62.8967 211.92ZM64.7698 217V210.455H65.7755V217H64.7698ZM65.2812 209.364C65.0852 209.364 64.9161 209.297 64.7741 209.163C64.6349 209.03 64.5653 208.869 64.5653 208.682C64.5653 208.494 64.6349 208.334 64.7741 208.2C64.9161 208.067 65.0852 208 65.2812 208C65.4772 208 65.6448 208.067 65.784 208.2C65.9261 208.334 65.9971 208.494 65.9971 208.682C65.9971 208.869 65.9261 209.03 65.784 209.163C65.6448 209.297 65.4772 209.364 65.2812 209.364ZM70.4995 219.591C70.0137 219.591 69.5961 219.528 69.2467 219.403C68.8973 219.281 68.6061 219.119 68.3731 218.918C68.143 218.719 67.9598 218.506 67.8234 218.278L68.6245 217.716C68.7154 217.835 68.8305 217.972 68.9697 218.125C69.1089 218.281 69.2992 218.416 69.5407 218.53C69.785 218.646 70.1046 218.705 70.4995 218.705C71.0279 218.705 71.464 218.577 71.8078 218.321C72.1515 218.065 72.3234 217.665 72.3234 217.119V215.79H72.2382C72.1643 215.909 72.0592 216.057 71.9228 216.233C71.7893 216.406 71.5961 216.561 71.3433 216.697C71.0933 216.831 70.7552 216.898 70.3291 216.898C69.8007 216.898 69.3262 216.773 68.9058 216.523C68.4882 216.273 68.1572 215.909 67.9129 215.432C67.6714 214.955 67.5507 214.375 67.5507 213.693C67.5507 213.023 67.6686 212.439 67.9044 211.942C68.1402 211.442 68.4683 211.055 68.8887 210.783C69.3092 210.507 69.795 210.369 70.3461 210.369C70.7723 210.369 71.1103 210.44 71.3603 210.582C71.6132 210.722 71.8063 210.881 71.9399 211.06C72.0762 211.236 72.1813 211.381 72.2552 211.494H72.3575V210.455H73.3291V217.188C73.3291 217.75 73.2012 218.207 72.9456 218.56C72.6927 218.915 72.3518 219.175 71.9228 219.339C71.4967 219.507 71.0223 219.591 70.4995 219.591ZM70.4654 215.994C70.8688 215.994 71.2098 215.902 71.4882 215.717C71.7666 215.533 71.9782 215.267 72.1231 214.92C72.268 214.574 72.3404 214.159 72.3404 213.676C72.3404 213.205 72.2694 212.788 72.1274 212.428C71.9853 212.067 71.7751 211.784 71.4967 211.58C71.2183 211.375 70.8745 211.273 70.4654 211.273C70.0393 211.273 69.6842 211.381 69.4001 211.597C69.1188 211.812 68.9072 212.102 68.7652 212.466C68.626 212.83 68.5563 213.233 68.5563 213.676C68.5563 214.131 68.6274 214.533 68.7694 214.882C68.9143 215.229 69.1274 215.501 69.4086 215.7C69.6927 215.896 70.045 215.994 70.4654 215.994ZM76.4157 213.062V217H75.41V210.455H76.3816V211.477H76.4668C76.6202 211.145 76.8532 210.878 77.1657 210.676C77.4782 210.472 77.8816 210.369 78.3759 210.369C78.8191 210.369 79.2069 210.46 79.5392 210.642C79.8716 210.821 80.1302 211.094 80.3148 211.46C80.4995 211.824 80.5918 212.284 80.5918 212.841V217H79.5861V212.909C79.5861 212.395 79.4526 211.994 79.1856 211.707C78.9185 211.418 78.552 211.273 78.0861 211.273C77.7651 211.273 77.4782 211.342 77.2253 211.482C76.9753 211.621 76.7779 211.824 76.633 212.091C76.4881 212.358 76.4157 212.682 76.4157 213.062ZM85.4138 217.136C84.7832 217.136 84.2391 216.997 83.7817 216.719C83.3272 216.438 82.9763 216.045 82.7292 215.543C82.4849 215.037 82.3627 214.449 82.3627 213.778C82.3627 213.108 82.4849 212.517 82.7292 212.006C82.9763 211.491 83.3201 211.091 83.7604 210.804C84.2036 210.514 84.7207 210.369 85.3116 210.369C85.6525 210.369 85.9891 210.426 86.3215 210.54C86.6539 210.653 86.9564 210.838 87.2292 211.094C87.5019 211.347 87.7192 211.682 87.8812 212.099C88.0431 212.517 88.1241 213.031 88.1241 213.642V214.068H83.0786V213.199H87.1013C87.1013 212.83 87.0275 212.5 86.8797 212.21C86.7349 211.92 86.5275 211.692 86.2576 211.524C85.9905 211.357 85.6752 211.273 85.3116 211.273C84.911 211.273 84.5644 211.372 84.2718 211.571C83.982 211.767 83.759 212.023 83.6028 212.338C83.4465 212.653 83.3684 212.991 83.3684 213.352V213.932C83.3684 214.426 83.4536 214.845 83.6241 215.189C83.7974 215.53 84.0374 215.79 84.3442 215.969C84.6511 216.145 85.0076 216.233 85.4138 216.233C85.678 216.233 85.9167 216.196 86.1297 216.122C86.3457 216.045 86.5317 215.932 86.688 215.781C86.8442 215.628 86.965 215.437 87.0502 215.21L88.0218 215.483C87.9195 215.812 87.7476 216.102 87.5062 216.352C87.2647 216.599 86.9664 216.793 86.6113 216.932C86.2562 217.068 85.857 217.136 85.4138 217.136ZM89.8939 217V210.455H90.8655V211.443H90.9337C91.053 211.119 91.2689 210.857 91.5814 210.655C91.8939 210.453 92.2462 210.352 92.6382 210.352C92.7121 210.352 92.8044 210.354 92.9152 210.357C93.026 210.359 93.1098 210.364 93.1666 210.369V211.392C93.1325 211.384 93.0544 211.371 92.9322 211.354C92.8129 211.334 92.6865 211.324 92.553 211.324C92.2348 211.324 91.9507 211.391 91.7007 211.524C91.4535 211.655 91.2575 211.837 91.1126 212.07C90.9706 212.3 90.8996 212.562 90.8996 212.858V217H89.8939Z"
                                fill="#303030" />
                            <rect x="0.5" y="173.5" width="113" height="63" rx="7.5" stroke="#C4C4C4" />
                            <rect x="0.5" y="262.5" width="113" height="63" rx="7.5" fill="white" />
                            <path
                                d="M40.5501 285H39.4933C39.4308 284.696 39.3214 284.429 39.1651 284.199C39.0117 283.969 38.8242 283.776 38.6026 283.619C38.3839 283.46 38.141 283.341 37.874 283.261C37.6069 283.182 37.3285 283.142 37.0387 283.142C36.5103 283.142 36.0316 283.276 35.6026 283.543C35.1765 283.81 34.837 284.203 34.5842 284.723C34.3342 285.243 34.2092 285.881 34.2092 286.636C34.2092 287.392 34.3342 288.03 34.5842 288.55C34.837 289.07 35.1765 289.463 35.6026 289.73C36.0316 289.997 36.5103 290.131 37.0387 290.131C37.3285 290.131 37.6069 290.091 37.874 290.011C38.141 289.932 38.3839 289.814 38.6026 289.658C38.8242 289.499 39.0117 289.304 39.1651 289.074C39.3214 288.841 39.4308 288.574 39.4933 288.273H40.5501C40.4705 288.719 40.3257 289.118 40.1154 289.47C39.9052 289.822 39.6438 290.122 39.3313 290.369C39.0188 290.614 38.668 290.8 38.2788 290.928C37.8924 291.055 37.4791 291.119 37.0387 291.119C36.2944 291.119 35.6325 290.938 35.0529 290.574C34.4734 290.21 34.0174 289.693 33.685 289.023C33.3526 288.352 33.1865 287.557 33.1865 286.636C33.1865 285.716 33.3526 284.92 33.685 284.25C34.0174 283.58 34.4734 283.062 35.0529 282.699C35.6325 282.335 36.2944 282.153 37.0387 282.153C37.4791 282.153 37.8924 282.217 38.2788 282.345C38.668 282.473 39.0188 282.661 39.3313 282.908C39.6438 283.152 39.9052 283.45 40.1154 283.803C40.3257 284.152 40.4705 284.551 40.5501 285ZM42.3615 291V284.455H43.3331V285.443H43.4012C43.5206 285.119 43.7365 284.857 44.049 284.655C44.3615 284.453 44.7137 284.352 45.1058 284.352C45.1797 284.352 45.272 284.354 45.3828 284.357C45.4936 284.359 45.5774 284.364 45.6342 284.369V285.392C45.6001 285.384 45.522 285.371 45.3998 285.354C45.2805 285.334 45.1541 285.324 45.0206 285.324C44.7024 285.324 44.4183 285.391 44.1683 285.524C43.9211 285.655 43.7251 285.837 43.5802 286.07C43.4382 286.3 43.3672 286.562 43.3672 286.858V291H42.3615ZM49.6114 291.136C48.9807 291.136 48.4367 290.997 47.9793 290.719C47.5248 290.438 47.1739 290.045 46.9268 289.543C46.6824 289.037 46.5603 288.449 46.5603 287.778C46.5603 287.108 46.6824 286.517 46.9268 286.006C47.1739 285.491 47.5177 285.091 47.958 284.804C48.4012 284.514 48.9182 284.369 49.5091 284.369C49.85 284.369 50.1867 284.426 50.5191 284.54C50.8515 284.653 51.154 284.838 51.4268 285.094C51.6995 285.347 51.9168 285.682 52.0787 286.099C52.2407 286.517 52.3216 287.031 52.3216 287.642V288.068H47.2762V287.199H51.2989C51.2989 286.83 51.225 286.5 51.0773 286.21C50.9324 285.92 50.725 285.692 50.4552 285.524C50.1881 285.357 49.8728 285.273 49.5091 285.273C49.1086 285.273 48.762 285.372 48.4694 285.571C48.1796 285.767 47.9566 286.023 47.8003 286.338C47.6441 286.653 47.566 286.991 47.566 287.352V287.932C47.566 288.426 47.6512 288.845 47.8216 289.189C47.9949 289.53 48.235 289.79 48.5418 289.969C48.8486 290.145 49.2052 290.233 49.6114 290.233C49.8756 290.233 50.1143 290.196 50.3273 290.122C50.5432 290.045 50.7293 289.932 50.8856 289.781C51.0418 289.628 51.1625 289.437 51.2478 289.21L52.2194 289.483C52.1171 289.812 51.9452 290.102 51.7037 290.352C51.4623 290.599 51.164 290.793 50.8089 290.932C50.4537 291.068 50.0546 291.136 49.6114 291.136ZM56.0176 291.153C55.6028 291.153 55.2264 291.075 54.8883 290.919C54.5503 290.76 54.2818 290.531 54.0829 290.233C53.8841 289.932 53.7847 289.568 53.7847 289.142C53.7847 288.767 53.8585 288.463 54.0062 288.23C54.154 287.994 54.3514 287.81 54.5986 287.676C54.8457 287.543 55.1185 287.443 55.4168 287.378C55.7179 287.31 56.0204 287.256 56.3244 287.216C56.7222 287.165 57.0446 287.126 57.2918 287.101C57.5418 287.072 57.7236 287.026 57.8372 286.96C57.9537 286.895 58.0119 286.781 58.0119 286.619V286.585C58.0119 286.165 57.8969 285.838 57.6668 285.605C57.4395 285.372 57.0943 285.256 56.6312 285.256C56.1511 285.256 55.7747 285.361 55.502 285.571C55.2293 285.781 55.0375 286.006 54.9267 286.244L53.9722 285.903C54.1426 285.506 54.3699 285.196 54.654 284.974C54.9409 284.75 55.2534 284.594 55.5915 284.506C55.9324 284.415 56.2676 284.369 56.5972 284.369C56.8074 284.369 57.0489 284.395 57.3216 284.446C57.5972 284.494 57.8628 284.595 58.1185 284.749C58.377 284.902 58.5915 285.134 58.7619 285.443C58.9324 285.753 59.0176 286.168 59.0176 286.688V291H58.0119V290.114H57.9608C57.8926 290.256 57.779 290.408 57.6199 290.57C57.4608 290.732 57.2491 290.869 56.9849 290.983C56.7207 291.097 56.3983 291.153 56.0176 291.153ZM56.171 290.25C56.5687 290.25 56.904 290.172 57.1767 290.016C57.4523 289.859 57.6597 289.658 57.7989 289.411C57.9409 289.163 58.0119 288.903 58.0119 288.631V287.71C57.9693 287.761 57.8756 287.808 57.7307 287.851C57.5886 287.891 57.4239 287.926 57.2364 287.957C57.0517 287.986 56.8713 288.011 56.6952 288.034C56.5219 288.054 56.3812 288.071 56.2733 288.085C56.0119 288.119 55.7676 288.175 55.5403 288.251C55.3159 288.325 55.1341 288.437 54.9949 288.588C54.8585 288.736 54.7903 288.937 54.7903 289.193C54.7903 289.543 54.9196 289.807 55.1781 289.986C55.4395 290.162 55.7704 290.25 56.171 290.25ZM63.9398 284.455V285.307H60.5477V284.455H63.9398ZM61.5364 282.886H62.5421V289.125C62.5421 289.409 62.5832 289.622 62.6656 289.764C62.7509 289.903 62.8588 289.997 62.9895 290.045C63.123 290.091 63.2636 290.114 63.4114 290.114C63.5222 290.114 63.6131 290.108 63.6841 290.097C63.7551 290.082 63.8119 290.071 63.8546 290.062L64.0591 290.966C63.9909 290.991 63.8957 291.017 63.7736 291.043C63.6514 291.071 63.4966 291.085 63.3091 291.085C63.025 291.085 62.7466 291.024 62.4739 290.902C62.204 290.78 61.9796 290.594 61.8006 290.344C61.6244 290.094 61.5364 289.778 61.5364 289.398V282.886ZM65.6926 291V284.455H66.6982V291H65.6926ZM66.2039 283.364C66.0079 283.364 65.8389 283.297 65.6968 283.163C65.5576 283.03 65.488 282.869 65.488 282.682C65.488 282.494 65.5576 282.334 65.6968 282.2C65.8389 282.067 66.0079 282 66.2039 282C66.4 282 66.5676 282.067 66.7068 282.2C66.8488 282.334 66.9198 282.494 66.9198 282.682C66.9198 282.869 66.8488 283.03 66.7068 283.163C66.5676 283.297 66.4 283.364 66.2039 283.364ZM74.1325 284.455L71.712 291H70.6893L68.2689 284.455H69.3598L71.1666 289.67H71.2348L73.0416 284.455H74.1325ZM78.2099 291.136C77.5792 291.136 77.0351 290.997 76.5777 290.719C76.1232 290.438 75.7724 290.045 75.5252 289.543C75.2809 289.037 75.1587 288.449 75.1587 287.778C75.1587 287.108 75.2809 286.517 75.5252 286.006C75.7724 285.491 76.1161 285.091 76.5564 284.804C76.9996 284.514 77.5167 284.369 78.1076 284.369C78.4485 284.369 78.7851 284.426 79.1175 284.54C79.4499 284.653 79.7525 284.838 80.0252 285.094C80.2979 285.347 80.5152 285.682 80.6772 286.099C80.8391 286.517 80.9201 287.031 80.9201 287.642V288.068H75.8746V287.199H79.8974C79.8974 286.83 79.8235 286.5 79.6758 286.21C79.5309 285.92 79.3235 285.692 79.0536 285.524C78.7866 285.357 78.4712 285.273 78.1076 285.273C77.707 285.273 77.3604 285.372 77.0678 285.571C76.778 285.767 76.555 286.023 76.3988 286.338C76.2425 286.653 76.1644 286.991 76.1644 287.352V287.932C76.1644 288.426 76.2496 288.845 76.4201 289.189C76.5934 289.53 76.8334 289.79 77.1402 289.969C77.4471 290.145 77.8036 290.233 78.2099 290.233C78.4741 290.233 78.7127 290.196 78.9258 290.122C79.1417 290.045 79.3277 289.932 79.484 289.781C79.6402 289.628 79.761 289.437 79.8462 289.21L80.8178 289.483C80.7155 289.812 80.5437 290.102 80.3022 290.352C80.0607 290.599 79.7624 290.793 79.4073 290.932C79.0522 291.068 78.653 291.136 78.2099 291.136ZM37.2401 306H34.5469V297.273H37.3594C38.206 297.273 38.9304 297.447 39.5327 297.797C40.135 298.143 40.5966 298.642 40.9176 299.293C41.2387 299.94 41.3992 300.716 41.3992 301.619C41.3992 302.528 41.2372 303.311 40.9134 303.967C40.5895 304.621 40.1179 305.124 39.4986 305.476C38.8793 305.825 38.1264 306 37.2401 306ZM35.6037 305.062H37.1719C37.8935 305.062 38.4915 304.923 38.9659 304.645C39.4404 304.366 39.7941 303.97 40.027 303.456C40.26 302.942 40.3764 302.33 40.3764 301.619C40.3764 300.915 40.2614 300.308 40.0313 299.8C39.8012 299.288 39.4574 298.896 39 298.624C38.5426 298.348 37.973 298.21 37.2912 298.21H35.6037V305.062ZM43.2755 306V299.455H44.2812V306H43.2755ZM43.7869 298.364C43.5909 298.364 43.4218 298.297 43.2798 298.163C43.1406 298.03 43.071 297.869 43.071 297.682C43.071 297.494 43.1406 297.334 43.2798 297.2C43.4218 297.067 43.5909 297 43.7869 297C43.9829 297 44.1505 297.067 44.2897 297.2C44.4318 297.334 44.5028 297.494 44.5028 297.682C44.5028 297.869 44.4318 298.03 44.2897 298.163C44.1505 298.297 43.9829 298.364 43.7869 298.364ZM46.3632 306V299.455H47.3348V300.443H47.403C47.5223 300.119 47.7382 299.857 48.0507 299.655C48.3632 299.453 48.7155 299.352 49.1075 299.352C49.1814 299.352 49.2737 299.354 49.3845 299.357C49.4953 299.359 49.5791 299.364 49.6359 299.369V300.392C49.6018 300.384 49.5237 300.371 49.4015 300.354C49.2822 300.334 49.1558 300.324 49.0223 300.324C48.7041 300.324 48.42 300.391 48.17 300.524C47.9228 300.655 47.7268 300.837 47.5819 301.07C47.4399 301.3 47.3689 301.562 47.3689 301.858V306H46.3632ZM53.6131 306.136C52.9824 306.136 52.4384 305.997 51.981 305.719C51.5265 305.438 51.1756 305.045 50.9285 304.543C50.6842 304.037 50.562 303.449 50.562 302.778C50.562 302.108 50.6842 301.517 50.9285 301.006C51.1756 300.491 51.5194 300.091 51.9597 299.804C52.4029 299.514 52.9199 299.369 53.5109 299.369C53.8518 299.369 54.1884 299.426 54.5208 299.54C54.8532 299.653 55.1557 299.838 55.4285 300.094C55.7012 300.347 55.9185 300.682 56.0805 301.099C56.2424 301.517 56.3234 302.031 56.3234 302.642V303.068H51.2779V302.199H55.3006C55.3006 301.83 55.2268 301.5 55.079 301.21C54.9342 300.92 54.7268 300.692 54.4569 300.524C54.1898 300.357 53.8745 300.273 53.5109 300.273C53.1103 300.273 52.7637 300.372 52.4711 300.571C52.1813 300.767 51.9583 301.023 51.8021 301.338C51.6458 301.653 51.5677 301.991 51.5677 302.352V302.932C51.5677 303.426 51.6529 303.845 51.8234 304.189C51.9967 304.53 52.2367 304.79 52.5435 304.969C52.8503 305.145 53.2069 305.233 53.6131 305.233C53.8773 305.233 54.116 305.196 54.329 305.122C54.5449 305.045 54.731 304.932 54.8873 304.781C55.0435 304.628 55.1643 304.437 55.2495 304.21L56.2211 304.483C56.1188 304.812 55.9469 305.102 55.7055 305.352C55.464 305.599 55.1657 305.793 54.8106 305.932C54.4555 306.068 54.0563 306.136 53.6131 306.136ZM60.7523 306.136C60.1386 306.136 59.6102 305.991 59.1671 305.702C58.7239 305.412 58.383 305.013 58.1443 304.504C57.9057 303.996 57.7864 303.415 57.7864 302.761C57.7864 302.097 57.9085 301.51 58.1528 301.001C58.4 300.49 58.7438 300.091 59.1841 299.804C59.6273 299.514 60.1443 299.369 60.7352 299.369C61.1955 299.369 61.6102 299.455 61.9796 299.625C62.3489 299.795 62.6514 300.034 62.8872 300.341C63.123 300.648 63.2693 301.006 63.3261 301.415H62.3205C62.2438 301.116 62.0733 300.852 61.8091 300.622C61.5477 300.389 61.1955 300.273 60.7523 300.273C60.3602 300.273 60.0165 300.375 59.721 300.58C59.4284 300.781 59.1997 301.067 59.0349 301.436C58.873 301.803 58.7921 302.233 58.7921 302.727C58.7921 303.233 58.8716 303.673 59.0307 304.048C59.1926 304.423 59.4199 304.714 59.7125 304.922C60.008 305.129 60.3546 305.233 60.7523 305.233C61.0136 305.233 61.2509 305.188 61.4639 305.097C61.677 305.006 61.8574 304.875 62.0051 304.705C62.1528 304.534 62.258 304.33 62.3205 304.091H63.3261C63.2693 304.477 63.1287 304.825 62.9043 305.135C62.6827 305.442 62.3886 305.686 62.0222 305.868C61.6585 306.047 61.2352 306.136 60.7523 306.136ZM67.8829 299.455V300.307H64.4909V299.455H67.8829ZM65.4795 297.886H66.4852V304.125C66.4852 304.409 66.5264 304.622 66.6088 304.764C66.694 304.903 66.8019 304.997 66.9326 305.045C67.0661 305.091 67.2068 305.114 67.3545 305.114C67.4653 305.114 67.5562 305.108 67.6272 305.097C67.6982 305.082 67.7551 305.071 67.7977 305.062L68.0022 305.966C67.934 305.991 67.8389 306.017 67.7167 306.043C67.5946 306.071 67.4397 306.085 67.2522 306.085C66.9681 306.085 66.6897 306.024 66.417 305.902C66.1471 305.78 65.9227 305.594 65.7437 305.344C65.5676 305.094 65.4795 304.778 65.4795 304.398V297.886ZM72.2245 306.136C71.6336 306.136 71.1151 305.996 70.6691 305.714C70.2259 305.433 69.8793 305.04 69.6293 304.534C69.3821 304.028 69.2586 303.437 69.2586 302.761C69.2586 302.08 69.3821 301.484 69.6293 300.976C69.8793 300.467 70.2259 300.072 70.6691 299.791C71.1151 299.51 71.6336 299.369 72.2245 299.369C72.8154 299.369 73.3324 299.51 73.7756 299.791C74.2216 300.072 74.5682 300.467 74.8154 300.976C75.0654 301.484 75.1904 302.08 75.1904 302.761C75.1904 303.437 75.0654 304.028 74.8154 304.534C74.5682 305.04 74.2216 305.433 73.7756 305.714C73.3324 305.996 72.8154 306.136 72.2245 306.136ZM72.2245 305.233C72.6733 305.233 73.0426 305.118 73.3324 304.888C73.6222 304.658 73.8367 304.355 73.9759 303.98C74.1151 303.605 74.1847 303.199 74.1847 302.761C74.1847 302.324 74.1151 301.916 73.9759 301.538C73.8367 301.161 73.6222 300.855 73.3324 300.622C73.0426 300.389 72.6733 300.273 72.2245 300.273C71.7756 300.273 71.4063 300.389 71.1165 300.622C70.8267 300.855 70.6122 301.161 70.473 301.538C70.3338 301.916 70.2642 302.324 70.2642 302.761C70.2642 303.199 70.3338 303.605 70.473 303.98C70.6122 304.355 70.8267 304.658 71.1165 304.888C71.4063 305.118 71.7756 305.233 72.2245 305.233ZM76.9655 306V299.455H77.9371V300.443H78.0053C78.1246 300.119 78.3405 299.857 78.653 299.655C78.9655 299.453 79.3178 299.352 79.7099 299.352C79.7837 299.352 79.876 299.354 79.9868 299.357C80.0976 299.359 80.1814 299.364 80.2383 299.369V300.392C80.2042 300.384 80.126 300.371 80.0039 300.354C79.8846 300.334 79.7581 300.324 79.6246 300.324C79.3064 300.324 79.0224 300.391 78.7724 300.524C78.5252 300.655 78.3292 300.837 78.1843 301.07C78.0422 301.3 77.9712 301.562 77.9712 301.858V306H76.9655Z"
                                fill="#303030" />
                            <rect x="0.5" y="262.5" width="113" height="63" rx="7.5" stroke="#C4C4C4" />
                            <rect x="0.5" y="0.5" width="113" height="63" rx="7.5" fill="white" />
                            <path
                                d="M43.3075 20.2727H44.3643V26.5114C44.3643 27.0682 44.262 27.5412 44.0575 27.9304C43.8529 28.3196 43.5646 28.6151 43.1924 28.8168C42.8203 29.0185 42.3814 29.1193 41.8757 29.1193C41.3984 29.1193 40.9737 29.0327 40.6015 28.8594C40.2294 28.6832 39.9368 28.4332 39.7237 28.1094C39.5106 27.7855 39.4041 27.4006 39.4041 26.9545H40.4439C40.4439 27.2017 40.5049 27.4176 40.6271 27.6023C40.7521 27.7841 40.9225 27.9261 41.1385 28.0284C41.3544 28.1307 41.6001 28.1818 41.8757 28.1818C42.1797 28.1818 42.4382 28.1179 42.6512 27.9901C42.8643 27.8622 43.0262 27.6747 43.137 27.4276C43.2507 27.1776 43.3075 26.8722 43.3075 26.5114V20.2727ZM50.7108 26.3239V22.4545H51.7165V29H50.7108V27.892H50.6427C50.4893 28.2244 50.2506 28.5071 49.9268 28.7401C49.6029 28.9702 49.1938 29.0852 48.6995 29.0852C48.2904 29.0852 47.9268 28.9957 47.6086 28.8168C47.2904 28.6349 47.0404 28.3622 46.8586 27.9986C46.6768 27.6321 46.5858 27.1705 46.5858 26.6136V22.4545H47.5915V26.5455C47.5915 27.0227 47.725 27.4034 47.9921 27.6875C48.262 27.9716 48.6057 28.1136 49.0233 28.1136C49.2733 28.1136 49.5276 28.0497 49.7861 27.9219C50.0475 27.794 50.2662 27.598 50.4424 27.3338C50.6214 27.0696 50.7108 26.733 50.7108 26.3239ZM54.8042 25.0625V29H53.7985V22.4545H54.7701V23.4773H54.8553C55.0087 23.1449 55.2417 22.8778 55.5542 22.6761C55.8667 22.4716 56.2701 22.3693 56.7644 22.3693C57.2076 22.3693 57.5954 22.4602 57.9278 22.642C58.2601 22.821 58.5187 23.0938 58.7033 23.4602C58.888 23.8239 58.9803 24.2841 58.9803 24.8409V29H57.9746V24.9091C57.9746 24.3949 57.8411 23.9943 57.5741 23.7074C57.307 23.4176 56.9405 23.2727 56.4746 23.2727C56.1536 23.2727 55.8667 23.3423 55.6138 23.4815C55.3638 23.6207 55.1664 23.8239 55.0215 24.0909C54.8766 24.358 54.8042 24.6818 54.8042 25.0625ZM61.058 29V22.4545H62.0637V29H61.058ZM61.5694 21.3636C61.3734 21.3636 61.2043 21.2969 61.0623 21.1634C60.9231 21.0298 60.8535 20.8693 60.8535 20.6818C60.8535 20.4943 60.9231 20.3338 61.0623 20.2003C61.2043 20.0668 61.3734 20 61.5694 20C61.7654 20 61.933 20.0668 62.0722 20.2003C62.2143 20.3338 62.2853 20.4943 62.2853 20.6818C62.2853 20.8693 62.2143 21.0298 62.0722 21.1634C61.933 21.2969 61.7654 21.3636 61.5694 21.3636ZM66.8048 29.1364C66.2139 29.1364 65.6954 28.9957 65.2494 28.7145C64.8062 28.4332 64.4596 28.0398 64.2096 27.5341C63.9625 27.0284 63.8389 26.4375 63.8389 25.7614C63.8389 25.0795 63.9625 24.4844 64.2096 23.9759C64.4596 23.4673 64.8062 23.0724 65.2494 22.7912C65.6954 22.5099 66.2139 22.3693 66.8048 22.3693C67.3957 22.3693 67.9127 22.5099 68.3559 22.7912C68.8019 23.0724 69.1485 23.4673 69.3957 23.9759C69.6457 24.4844 69.7707 25.0795 69.7707 25.7614C69.7707 26.4375 69.6457 27.0284 69.3957 27.5341C69.1485 28.0398 68.8019 28.4332 68.3559 28.7145C67.9127 28.9957 67.3957 29.1364 66.8048 29.1364ZM66.8048 28.233C67.2536 28.233 67.623 28.1179 67.9127 27.8878C68.2025 27.6577 68.417 27.3551 68.5562 26.9801C68.6954 26.6051 68.765 26.1989 68.765 25.7614C68.765 25.3239 68.6954 24.9162 68.5562 24.5384C68.417 24.1605 68.2025 23.8551 67.9127 23.6222C67.623 23.3892 67.2536 23.2727 66.8048 23.2727C66.3559 23.2727 65.9866 23.3892 65.6968 23.6222C65.4071 23.8551 65.1926 24.1605 65.0534 24.5384C64.9142 24.9162 64.8446 25.3239 64.8446 25.7614C64.8446 26.1989 64.9142 26.6051 65.0534 26.9801C65.1926 27.3551 65.4071 27.6577 65.6968 27.8878C65.9866 28.1179 66.3559 28.233 66.8048 28.233ZM71.5458 29V22.4545H72.5174V23.4432H72.5856C72.7049 23.1193 72.9208 22.8565 73.2333 22.6548C73.5458 22.4531 73.8981 22.3523 74.2902 22.3523C74.364 22.3523 74.4564 22.3537 74.5672 22.3565C74.6779 22.3594 74.7618 22.3636 74.8186 22.3693V23.392C74.7845 23.3835 74.7064 23.3707 74.5842 23.3537C74.4649 23.3338 74.3385 23.3239 74.2049 23.3239C73.8868 23.3239 73.6027 23.3906 73.3527 23.5241C73.1055 23.6548 72.9095 23.8366 72.7646 24.0696C72.6225 24.2997 72.5515 24.5625 72.5515 24.858V29H71.5458ZM27.3458 35.2727H28.4026V41.0511C28.4026 41.6477 28.262 42.1804 27.9808 42.6491C27.7023 43.1151 27.3089 43.483 26.8004 43.7528C26.2918 44.0199 25.6952 44.1534 25.0106 44.1534C24.3259 44.1534 23.7293 44.0199 23.2208 43.7528C22.7123 43.483 22.3174 43.1151 22.0361 42.6491C21.7577 42.1804 21.6185 41.6477 21.6185 41.0511V35.2727H22.6754V40.9659C22.6754 41.392 22.7691 41.7713 22.9566 42.1037C23.1441 42.4332 23.4111 42.6932 23.7577 42.8835C24.1072 43.071 24.5248 43.1648 25.0106 43.1648C25.4964 43.1648 25.914 43.071 26.2634 42.8835C26.6129 42.6932 26.8799 42.4332 27.0646 42.1037C27.2521 41.7713 27.3458 41.392 27.3458 40.9659V35.2727ZM31.2644 35.2727L33.5144 38.9034H33.5826L35.8326 35.2727H37.0769L34.3326 39.6364L37.0769 44H35.8326L33.5826 40.4375H33.5144L31.2644 44H30.0201L32.8326 39.6364L30.0201 35.2727H31.2644ZM45.0005 44H42.3073V35.2727H45.1198C45.9664 35.2727 46.6908 35.4474 47.2931 35.7969C47.8954 36.1435 48.357 36.642 48.678 37.2926C48.999 37.9403 49.1596 38.7159 49.1596 39.6193C49.1596 40.5284 48.9976 41.3111 48.6738 41.9673C48.3499 42.6207 47.8783 43.1236 47.259 43.4759C46.6397 43.8253 45.8868 44 45.0005 44ZM43.3641 43.0625H44.9323C45.6539 43.0625 46.2519 42.9233 46.7263 42.6449C47.2008 42.3665 47.5544 41.9702 47.7874 41.456C48.0204 40.9418 48.1368 40.3295 48.1368 39.6193C48.1368 38.9148 48.0218 38.3082 47.7917 37.7997C47.5615 37.2884 47.2178 36.8963 46.7604 36.6236C46.303 36.348 45.7334 36.2102 45.0516 36.2102H43.3641V43.0625ZM53.7802 44.1364C53.1496 44.1364 52.6055 43.9972 52.1481 43.7188C51.6936 43.4375 51.3427 43.0455 51.0956 42.5426C50.8513 42.0369 50.7291 41.4489 50.7291 40.7784C50.7291 40.108 50.8513 39.517 51.0956 39.0057C51.3427 38.4915 51.6865 38.0909 52.1268 37.804C52.57 37.5142 53.0871 37.3693 53.678 37.3693C54.0189 37.3693 54.3555 37.4261 54.6879 37.5398C55.0203 37.6534 55.3229 37.8381 55.5956 38.0938C55.8683 38.3466 56.0856 38.6818 56.2476 39.0994C56.4095 39.517 56.4905 40.0312 56.4905 40.642V41.0682H51.445V40.1989H55.4677C55.4677 39.8295 55.3939 39.5 55.2461 39.2102C55.1013 38.9205 54.8939 38.6918 54.624 38.5241C54.3569 38.3565 54.0416 38.2727 53.678 38.2727C53.2774 38.2727 52.9308 38.3722 52.6382 38.571C52.3484 38.767 52.1254 39.0227 51.9692 39.3381C51.8129 39.6534 51.7348 39.9915 51.7348 40.3523V40.9318C51.7348 41.4261 51.82 41.8452 51.9905 42.1889C52.1638 42.5298 52.4038 42.7898 52.7106 42.9688C53.0175 43.1449 53.374 43.233 53.7802 43.233C54.0444 43.233 54.2831 43.196 54.4961 43.1222C54.7121 43.0455 54.8981 42.9318 55.0544 42.7812C55.2106 42.6278 55.3314 42.4375 55.4166 42.2102L56.3882 42.483C56.2859 42.8125 56.114 43.1023 55.8726 43.3523C55.6311 43.5994 55.3328 43.7926 54.9777 43.9318C54.6226 44.0682 54.2234 44.1364 53.7802 44.1364ZM62.8967 38.9205L61.9933 39.1761C61.9364 39.0256 61.8526 38.8793 61.7418 38.7372C61.6339 38.5923 61.4862 38.473 61.2987 38.3793C61.1112 38.2855 60.8711 38.2386 60.5785 38.2386C60.1779 38.2386 59.8441 38.331 59.5771 38.5156C59.3129 38.6974 59.1808 38.929 59.1808 39.2102C59.1808 39.4602 59.2717 39.6577 59.4535 39.8026C59.6353 39.9474 59.9194 40.0682 60.3058 40.1648L61.2773 40.4034C61.8626 40.5455 62.2987 40.7628 62.5856 41.0554C62.8725 41.3452 63.016 41.7187 63.016 42.1761C63.016 42.5511 62.908 42.8864 62.6921 43.1818C62.479 43.4773 62.1808 43.7102 61.7972 43.8807C61.4137 44.0511 60.9677 44.1364 60.4592 44.1364C59.7915 44.1364 59.239 43.9915 58.8015 43.7017C58.364 43.4119 58.087 42.9886 57.9705 42.4318L58.9251 42.1932C59.016 42.5455 59.1879 42.8097 59.4407 42.9858C59.6964 43.1619 60.0302 43.25 60.4421 43.25C60.9109 43.25 61.283 43.1506 61.5586 42.9517C61.837 42.75 61.9762 42.5085 61.9762 42.2273C61.9762 42 61.8967 41.8097 61.7376 41.6562C61.5785 41.5 61.3342 41.3835 61.0046 41.3068L59.9137 41.0511C59.3143 40.9091 58.8739 40.6889 58.5927 40.3906C58.3143 40.0895 58.1751 39.7131 58.1751 39.2614C58.1751 38.892 58.2788 38.5653 58.4862 38.2812C58.6964 37.9972 58.9819 37.7741 59.3427 37.6122C59.7063 37.4503 60.1183 37.3693 60.5785 37.3693C61.2262 37.3693 61.7347 37.5114 62.104 37.7955C62.4762 38.0795 62.7404 38.4545 62.8967 38.9205ZM64.7698 44V37.4545H65.7755V44H64.7698ZM65.2812 36.3636C65.0852 36.3636 64.9161 36.2969 64.7741 36.1634C64.6349 36.0298 64.5653 35.8693 64.5653 35.6818C64.5653 35.4943 64.6349 35.3338 64.7741 35.2003C64.9161 35.0668 65.0852 35 65.2812 35C65.4772 35 65.6448 35.0668 65.784 35.2003C65.9261 35.3338 65.9971 35.4943 65.9971 35.6818C65.9971 35.8693 65.9261 36.0298 65.784 36.1634C65.6448 36.2969 65.4772 36.3636 65.2812 36.3636ZM70.4995 46.5909C70.0137 46.5909 69.5961 46.5284 69.2467 46.4034C68.8973 46.2812 68.6061 46.1193 68.3731 45.9176C68.143 45.7188 67.9598 45.5057 67.8234 45.2784L68.6245 44.7159C68.7154 44.8352 68.8305 44.9716 68.9697 45.125C69.1089 45.2812 69.2992 45.4162 69.5407 45.5298C69.785 45.6463 70.1046 45.7045 70.4995 45.7045C71.0279 45.7045 71.464 45.5767 71.8078 45.321C72.1515 45.0653 72.3234 44.6648 72.3234 44.1193V42.7898H72.2382C72.1643 42.9091 72.0592 43.0568 71.9228 43.233C71.7893 43.4062 71.5961 43.5611 71.3433 43.6974C71.0933 43.831 70.7552 43.8977 70.3291 43.8977C69.8007 43.8977 69.3262 43.7727 68.9058 43.5227C68.4882 43.2727 68.1572 42.9091 67.9129 42.4318C67.6714 41.9545 67.5507 41.375 67.5507 40.6932C67.5507 40.0227 67.6686 39.4389 67.9044 38.9418C68.1402 38.4418 68.4683 38.0554 68.8887 37.7827C69.3092 37.5071 69.795 37.3693 70.3461 37.3693C70.7723 37.3693 71.1103 37.4403 71.3603 37.5824C71.6132 37.7216 71.8063 37.8807 71.9399 38.0597C72.0762 38.2358 72.1813 38.3807 72.2552 38.4943H72.3575V37.4545H73.3291V44.1875C73.3291 44.75 73.2012 45.2074 72.9456 45.5597C72.6927 45.9148 72.3518 46.1747 71.9228 46.3395C71.4967 46.5071 71.0223 46.5909 70.4995 46.5909ZM70.4654 42.9943C70.8688 42.9943 71.2098 42.902 71.4882 42.7173C71.7666 42.5327 71.9782 42.267 72.1231 41.9205C72.268 41.5739 72.3404 41.1591 72.3404 40.6761C72.3404 40.2045 72.2694 39.7884 72.1274 39.4276C71.9853 39.0668 71.7751 38.7841 71.4967 38.5795C71.2183 38.375 70.8745 38.2727 70.4654 38.2727C70.0393 38.2727 69.6842 38.3807 69.4001 38.5966C69.1188 38.8125 68.9072 39.1023 68.7652 39.4659C68.626 39.8295 68.5563 40.233 68.5563 40.6761C68.5563 41.1307 68.6274 41.5327 68.7694 41.8821C68.9143 42.2287 69.1274 42.5014 69.4086 42.7003C69.6927 42.8963 70.045 42.9943 70.4654 42.9943ZM76.4157 40.0625V44H75.41V37.4545H76.3816V38.4773H76.4668C76.6202 38.1449 76.8532 37.8778 77.1657 37.6761C77.4782 37.4716 77.8816 37.3693 78.3759 37.3693C78.8191 37.3693 79.2069 37.4602 79.5392 37.642C79.8716 37.821 80.1302 38.0938 80.3148 38.4602C80.4995 38.8239 80.5918 39.2841 80.5918 39.8409V44H79.5861V39.9091C79.5861 39.3949 79.4526 38.9943 79.1856 38.7074C78.9185 38.4176 78.552 38.2727 78.0861 38.2727C77.7651 38.2727 77.4782 38.3423 77.2253 38.4815C76.9753 38.6207 76.7779 38.8239 76.633 39.0909C76.4881 39.358 76.4157 39.6818 76.4157 40.0625ZM85.4138 44.1364C84.7832 44.1364 84.2391 43.9972 83.7817 43.7188C83.3272 43.4375 82.9763 43.0455 82.7292 42.5426C82.4849 42.0369 82.3627 41.4489 82.3627 40.7784C82.3627 40.108 82.4849 39.517 82.7292 39.0057C82.9763 38.4915 83.3201 38.0909 83.7604 37.804C84.2036 37.5142 84.7207 37.3693 85.3116 37.3693C85.6525 37.3693 85.9891 37.4261 86.3215 37.5398C86.6539 37.6534 86.9564 37.8381 87.2292 38.0938C87.5019 38.3466 87.7192 38.6818 87.8812 39.0994C88.0431 39.517 88.1241 40.0312 88.1241 40.642V41.0682H83.0786V40.1989H87.1013C87.1013 39.8295 87.0275 39.5 86.8797 39.2102C86.7349 38.9205 86.5275 38.6918 86.2576 38.5241C85.9905 38.3565 85.6752 38.2727 85.3116 38.2727C84.911 38.2727 84.5644 38.3722 84.2718 38.571C83.982 38.767 83.759 39.0227 83.6028 39.3381C83.4465 39.6534 83.3684 39.9915 83.3684 40.3523V40.9318C83.3684 41.4261 83.4536 41.8452 83.6241 42.1889C83.7974 42.5298 84.0374 42.7898 84.3442 42.9688C84.6511 43.1449 85.0076 43.233 85.4138 43.233C85.678 43.233 85.9167 43.196 86.1297 43.1222C86.3457 43.0455 86.5317 42.9318 86.688 42.7812C86.8442 42.6278 86.965 42.4375 87.0502 42.2102L88.0218 42.483C87.9195 42.8125 87.7476 43.1023 87.5062 43.3523C87.2647 43.5994 86.9664 43.7926 86.6113 43.9318C86.2562 44.0682 85.857 44.1364 85.4138 44.1364ZM89.8939 44V37.4545H90.8655V38.4432H90.9337C91.053 38.1193 91.2689 37.8565 91.5814 37.6548C91.8939 37.4531 92.2462 37.3523 92.6382 37.3523C92.7121 37.3523 92.8044 37.3537 92.9152 37.3565C93.026 37.3594 93.1098 37.3636 93.1666 37.3693V38.392C93.1325 38.3835 93.0544 38.3707 92.9322 38.3537C92.8129 38.3338 92.6865 38.3239 92.553 38.3239C92.2348 38.3239 91.9507 38.3906 91.7007 38.5241C91.4535 38.6548 91.2575 38.8366 91.1126 39.0696C90.9706 39.2997 90.8996 39.5625 90.8996 39.858V44H89.8939Z"
                                fill="#387BBE" />
                            <rect x="0.5" y="0.5" width="113" height="63" rx="7.5" stroke="#387BBE" />
                            <path d="M57 64V81" stroke="#C4C4C4" />
                            <circle cx="57" cy="84" r="3" stroke="#C4C4C4" />
                            <path d="M57 148V170" stroke="#C4C4C4" />
                            <circle cx="57" cy="173" r="3" stroke="#C4C4C4" />
                            <path d="M57 237V259" stroke="#C4C4C4" />
                            <circle cx="57" cy="262" r="3" stroke="#C4C4C4" />
                            <path d="M114 32H203C207.418 32 211 35.5817 211 40V81" stroke="#C4C4C4" />
                            <circle cx="211" cy="84" r="3" stroke="#C4C4C4" />
                            <path d="M211 148V170" stroke="#C4C4C4" />
                            <circle cx="211" cy="173" r="3" stroke="#C4C4C4" />
                            <path d="M117 294H203C207.418 294 211 290.418 211 286V237" stroke="#C4C4C4" />
                            <circle cx="114" cy="294" r="3" stroke="#C4C4C4" />
                        </svg>